<?xml version="1.0" standalone="no"?>
<!DOCTYPE svg PUBLIC "-//W3C//DTD SVG 20010904//EN"
 "http://www.w3.org/TR/2001/REC-SVG-20010904/DTD/svg10.dtd">
<svg version="1.0" xmlns="http://www.w3.org/2000/svg"
 width="640.000000pt" height="640.000000pt" viewBox="0 0 640.000000 640.000000"
 preserveAspectRatio="xMidYMid meet">
<metadata>
Created by potrace 1.14, written by Peter Selinger 2001-2017
</metadata>
<g transform="translate(0.000000,640.000000) scale(0.100000,-0.100000)"
fill="#000000" stroke="none">
<path d="M0 5651 c0 -590 3 -750 13 -754 9 -3 9 -9 0 -25 -8 -13 -12 -62 -12
-131 0 -95 2 -110 17 -114 16 -4 16 -5 0 -6 -16 -1 -18 -17 -17 -181 0 -99 1
-180 3 -180 2 0 19 13 39 28 27 22 33 32 25 45 -7 13 -5 17 11 17 10 0 21 -5
23 -11 5 -16 48 -1 48 17 0 20 -25 28 -49 14 -14 -7 -21 -7 -21 0 0 5 -7 10
-15 10 -8 0 -15 5 -15 10 0 6 -9 10 -20 10 -26 0 -28 48 -3 57 35 14 41 26 24
54 -14 25 -13 28 10 58 20 26 30 30 63 28 38 -2 39 0 50 37 11 38 14 40 70 53
61 14 76 11 76 -13 0 -8 8 -14 18 -14 10 0 27 -7 38 -15 12 -8 23 -13 25 -10
2 2 4 -9 4 -23 1 -15 -4 -30 -9 -34 -13 -9 -108 2 -123 14 -14 11 -51 2 -75
-20 -12 -10 -18 -30 -18 -59 0 -26 -6 -51 -15 -59 -8 -9 -15 -20 -15 -25 0
-12 43 -1 48 12 2 5 10 9 19 9 8 0 21 7 29 15 19 18 53 20 50 3 -3 -25 -16
-36 -51 -42 -19 -4 -35 -11 -35 -17 0 -5 -10 -7 -22 -4 -20 5 -23 2 -25 -25
-3 -40 20 -40 75 0 23 17 51 30 62 30 12 0 42 11 68 25 26 14 54 25 63 25 9 0
22 6 28 14 6 8 25 19 41 26 25 10 30 18 30 46 0 37 15 44 49 22 15 -9 26 -8
54 5 19 9 40 17 46 17 6 0 11 18 11 41 0 33 -4 42 -21 46 -19 5 -18 8 13 33
l32 27 -37 37 c-27 26 -44 35 -58 31 -18 -6 -108 35 -171 77 -17 12 -29 15
-33 8 -4 -7 -13 -7 -27 1 -11 6 -30 8 -43 5 -13 -3 -27 -1 -31 5 -4 7 -22 9
-44 6 -21 -2 -44 0 -51 5 -11 8 -10 9 4 4 29 -9 19 8 -17 28 -32 17 -33 18
-21 53 7 20 19 39 26 43 19 9 109 0 109 -11 0 -5 7 -9 15 -9 8 0 15 5 15 10 0
6 15 10 33 10 23 0 28 -3 17 -9 -8 -6 -19 -7 -25 -4 -5 2 1 -5 15 -16 14 -11
29 -21 34 -21 4 0 6 -10 2 -23 -4 -18 1 -29 25 -46 25 -19 39 -22 77 -17 26 3
89 9 140 12 89 6 93 6 99 -15 5 -22 33 -30 33 -10 0 8 4 8 14 0 7 -6 22 -8 31
-4 13 4 16 3 11 -5 -9 -15 6 -16 21 -1 8 8 16 6 31 -9 19 -19 19 -20 2 -35
-10 -8 -20 -21 -23 -28 -4 -11 -8 -9 -19 5 -15 19 -16 18 -28 -18 -6 -21 -10
-40 -7 -43 3 -3 21 7 40 21 19 14 44 26 55 26 12 0 22 5 22 10 0 6 7 10 16 10
9 0 14 -6 12 -12 -3 -7 -11 -13 -18 -13 -7 0 -15 -6 -17 -12 -6 -18 68 -17 93
2 28 21 34 18 23 -12 -15 -42 -23 -51 -204 -208 -185 -160 -321 -344 -419
-564 -16 -35 -38 -80 -49 -99 -11 -19 -36 -91 -54 -161 -47 -178 -52 -201 -53
-249 0 -50 -27 -142 -46 -158 -7 -5 -13 -30 -14 -55 -3 -122 -3 -152 3 -254 4
-60 11 -137 17 -170 5 -34 8 -126 6 -205 -3 -102 0 -157 10 -184 7 -22 9 -46
5 -54 -6 -11 -10 -7 -16 14 l-8 29 -8 -34 c-5 -25 -3 -38 8 -49 11 -11 13 -25
7 -51 -4 -20 -7 -45 -7 -56 1 -11 2 -50 4 -87 l2 -66 36 5 c20 3 45 12 56 19
11 8 43 14 72 14 57 0 69 -15 39 -49 -26 -30 -29 -58 -6 -64 13 -3 20 -13 20
-31 0 -16 9 -31 25 -42 14 -9 25 -21 25 -26 0 -5 7 -16 15 -25 10 -9 13 -23 9
-36 -5 -17 -3 -19 15 -14 25 6 29 -14 6 -33 -38 -32 6 -53 93 -45 46 5 49 1
27 -41 -22 -43 -19 -53 20 -70 19 -8 35 -20 35 -28 0 -18 -87 -106 -105 -106
-8 0 -20 -8 -27 -17 -22 -30 -66 -49 -80 -35 -18 18 -40 14 -73 -14 -28 -23
-29 -25 -12 -35 14 -8 16 -14 6 -25 -9 -11 -8 -14 7 -14 11 0 41 -11 68 -25
27 -14 66 -25 85 -25 50 0 81 -10 81 -25 0 -8 -8 -11 -20 -8 -22 6 -29 -22 -7
-30 6 -3 -3 -10 -21 -17 -17 -7 -32 -18 -32 -25 0 -21 28 -38 53 -31 21 5 24
0 36 -51 9 -40 10 -58 2 -66 -8 -8 -11 -3 -11 15 0 15 -11 39 -25 54 l-25 27
0 -29 c0 -16 -7 -38 -15 -48 -8 -11 -15 -29 -15 -41 0 -12 -5 -26 -12 -33 -9
-9 -8 -12 5 -12 9 0 17 -4 17 -9 0 -10 -39 -27 -52 -23 -4 1 -5 -5 -2 -13 4
-11 -1 -15 -16 -15 -15 0 -20 4 -16 15 3 8 -3 19 -14 25 -28 15 -33 13 -52
-20 -15 -26 -15 -32 -3 -36 8 -3 19 -3 26 1 16 11 29 -16 18 -36 -8 -15 -23
-18 -90 -17 -60 1 -84 -3 -96 -14 -29 -30 -4 -40 39 -16 38 22 40 22 53 5 12
-17 20 -17 91 -8 86 12 111 4 81 -26 -14 -14 -20 -15 -42 -3 -21 11 -32 11
-67 0 -24 -7 -47 -17 -52 -22 -6 -4 -23 -8 -38 -8 -15 0 -28 -4 -28 -10 0 -5
6 -10 14 -10 19 0 26 -21 14 -42 -12 -24 -38 -23 -31 0 2 10 -3 24 -11 31 -13
11 -16 11 -16 -2 0 -23 -34 -39 -49 -24 -17 17 -71 18 -78 1 -3 -8 -16 -14
-30 -14 -19 0 -24 -4 -19 -16 3 -9 6 -22 6 -31 0 -11 5 -13 17 -8 47 20 98 24
109 9 7 -8 22 -17 34 -19 29 -6 34 -11 25 -25 -5 -8 -30 -10 -74 -7 -36 2 -72
2 -79 0 -19 -7 -14 -23 8 -23 11 0 20 -4 20 -10 0 -14 -40 -12 -69 4 -18 10
-31 11 -52 2 -26 -9 -29 -15 -29 -58 0 -37 5 -50 22 -62 l22 -16 -22 0 c-30 0
-28 -18 3 -30 28 -11 31 -20 13 -38 -15 -15 -8 -15 26 -2 14 5 26 17 26 27 1
17 1 17 14 1 19 -26 45 -22 56 8 15 37 4 46 -54 43 -50 -3 -51 -3 -54 27 -4
42 29 75 73 72 18 -1 40 3 47 10 12 10 14 7 10 -18 -2 -17 -8 -30 -13 -30 -5
0 -9 -12 -9 -26 0 -33 24 -27 29 7 6 41 41 49 41 8 0 -11 -6 -22 -14 -25 -8
-3 -17 -22 -21 -42 -13 -71 -85 -161 -85 -107 0 10 -11 15 -35 15 -33 0 -34
-1 -23 -20 7 -11 23 -20 35 -20 32 0 29 -18 -4 -31 -52 -20 -58 -26 -63 -55
-4 -20 -12 -30 -28 -32 -26 -4 -40 22 -22 43 15 18 6 45 -15 45 -12 0 -14 -23
-13 -155 l1 -155 83 2 c62 1 81 5 77 14 -8 21 69 22 90 1 16 -16 110 -17 1681
-17 1524 0 1664 1 1662 16 0 9 9 20 22 25 18 7 22 5 22 -10 0 -23 36 -35 44
-14 8 20 8 19 -9 37 -14 14 -14 18 -1 45 14 26 14 30 0 42 -14 11 -18 10 -29
-4 -7 -10 -19 -15 -28 -11 -18 6 -31 34 -17 34 6 0 10 5 10 10 0 6 -13 10 -28
10 -30 0 -52 -30 -52 -70 0 -13 -7 -20 -20 -20 -23 0 -27 15 -5 24 8 3 15 15
15 26 0 11 5 20 10 20 6 0 10 9 10 20 0 13 -7 20 -20 20 -13 0 -24 10 -31 27
-15 39 4 51 32 19 12 -14 27 -26 32 -26 4 0 16 -7 25 -16 13 -13 17 -14 21 -3
3 8 23 15 43 17 28 2 39 -2 47 -16 6 -11 27 -27 47 -37 34 -16 38 -16 46 -1
15 26 158 13 158 -14 0 -6 11 -10 25 -10 14 0 33 -4 43 -9 9 -5 25 -12 35 -15
24 -7 24 -57 0 -53 -10 1 -18 -2 -18 -8 0 -5 14 -9 31 -7 20 2 34 -3 37 -12 3
-8 14 -12 25 -9 12 3 22 -1 25 -11 9 -23 58 -21 64 2 3 14 12 17 34 14 16 -2
29 -10 29 -18 0 -11 27 -14 138 -14 151 0 242 8 242 21 0 5 -6 9 -14 9 -20 0
-30 18 -18 33 6 7 9 31 7 55 -3 38 -1 42 20 42 17 0 26 -8 34 -33 l12 -32 18
24 c23 30 68 23 73 -11 2 -13 15 -29 31 -36 16 -8 27 -21 27 -33 0 -10 7 -19
15 -19 14 0 14 4 0 36 -8 20 -15 45 -15 55 0 27 27 23 46 -6 9 -14 22 -25 29
-25 15 0 31 -38 21 -47 -10 -11 16 -33 38 -33 14 0 28 11 40 30 20 35 41 30
31 -7 -5 -23 -3 -24 27 -21 25 2 34 8 36 24 3 19 7 21 39 14 19 -5 40 -13 46
-19 6 -6 22 -11 35 -11 31 0 24 24 -9 28 -13 2 -35 14 -49 27 -14 13 -36 23
-50 23 -14 0 -36 3 -50 7 -28 7 -80 -26 -80 -51 0 -8 -7 -14 -15 -14 -11 0
-15 9 -13 29 1 16 -4 36 -11 45 -7 9 -11 23 -7 31 6 17 42 20 51 5 11 -18 25
1 19 26 -5 20 -2 24 15 24 12 0 21 3 21 8 0 13 -45 36 -67 33 -13 -1 -26 5
-33 18 -6 12 -17 21 -24 21 -8 0 -16 6 -19 14 -8 21 -97 33 -108 15 -14 -22
-11 -25 31 -39 36 -12 79 -55 66 -67 -8 -8 -26 7 -26 23 0 9 -11 14 -30 14
-20 0 -42 11 -66 34 -31 29 -39 33 -56 23 -18 -11 -22 -51 -5 -45 11 4 29 -30
22 -42 -7 -12 -122 42 -158 75 -32 29 -70 35 -60 9 4 -10 -1 -22 -12 -30 -20
-15 -18 -16 45 -32 l35 -9 -45 -13 c-25 -7 -60 -12 -79 -12 -18 1 -42 -3 -54
-9 -17 -10 -19 -9 -12 7 14 36 11 49 -12 46 -28 -4 -37 12 -18 31 24 25 18 39
-13 32 -22 -4 -35 0 -56 20 -33 30 -49 25 -35 -12 13 -34 4 -39 -71 -37 -63 1
-72 -6 -43 -38 10 -11 12 -18 4 -18 -15 0 -61 30 -61 40 0 15 72 80 82 74 5
-3 18 2 29 12 14 13 16 20 8 31 -6 7 -18 13 -25 13 -8 0 -14 7 -14 15 0 8 -6
15 -13 15 -20 0 -37 -22 -37 -47 0 -24 -14 -31 -25 -13 -3 6 -20 10 -37 10
-18 0 -36 7 -44 17 -12 17 -14 17 -34 -4 -11 -13 -25 -23 -30 -23 -27 0 -19
50 9 50 9 0 24 11 33 24 17 23 16 25 -7 50 -14 15 -25 32 -25 37 0 6 -12 9
-26 7 -22 -3 -28 3 -39 34 -13 39 -11 48 12 48 17 0 17 -30 1 -31 -7 0 -2 -5
11 -12 19 -9 26 -8 36 6 16 23 35 22 35 -2 0 -34 18 -33 35 3 12 25 14 39 6
54 -5 10 -6 23 -2 28 5 5 11 23 14 41 8 39 -15 52 -41 23 -50 -55 -53 -74 -12
-75 26 0 34 -13 21 -34 -8 -12 -16 -13 -51 -2 -37 11 -41 15 -36 36 4 16 1 25
-11 29 -16 7 -36 -11 -27 -25 2 -4 0 -10 -6 -14 -6 -3 -27 7 -47 24 -21 17
-45 31 -54 31 -19 0 -33 37 -18 46 6 3 22 -2 37 -12 44 -30 70 -42 76 -36 9 8
-35 52 -51 52 -19 0 -17 69 2 76 8 4 15 11 15 16 0 10 -131 6 -165 -6 -12 -4
-28 -1 -40 8 -20 14 -20 14 0 36 l20 22 -27 23 c-15 13 -33 25 -40 28 -11 4
-10 7 1 15 9 7 27 4 55 -7 31 -14 42 -24 44 -44 3 -20 9 -27 25 -26 30 1 59
13 58 24 -1 6 14 11 34 13 40 3 41 1 19 -33 -15 -23 -15 -25 0 -31 27 -10 66
5 66 25 0 10 -7 21 -15 25 -8 3 -14 13 -13 23 4 48 -3 64 -31 76 -24 10 -27
16 -20 35 10 27 24 28 46 2 10 -11 25 -20 35 -20 10 0 20 -10 24 -24 6 -27 29
-40 49 -29 9 6 10 15 4 31 -7 18 -14 22 -29 17 -16 -5 -20 -2 -20 17 0 15 -8
27 -22 33 -13 6 -25 21 -28 35 -3 15 -13 26 -25 28 -11 2 -32 6 -46 9 -34 6
-45 -11 -26 -41 9 -13 12 -27 7 -32 -7 -7 -30 -117 -30 -146 0 -5 -7 -8 -16
-8 -14 0 -16 8 -11 55 6 61 -2 74 -28 45 -23 -25 -58 -27 -53 -3 2 10 12 19
23 21 35 7 47 24 42 58 -5 28 -2 33 16 37 l22 4 -22 2 c-20 1 -21 4 -11 32 7
21 7 34 0 41 -13 13 6 58 25 58 7 0 22 6 33 12 15 10 22 10 32 0 9 -9 15 -9
27 2 14 13 16 11 18 -19 1 -31 -2 -35 -35 -46 -43 -13 -64 -29 -39 -29 9 0 16
-6 14 -12 -1 -8 10 -14 27 -16 36 -4 82 34 65 54 -13 16 -5 30 21 37 31 8 39
-23 12 -41 -18 -11 -20 -18 -11 -34 6 -11 8 -26 5 -35 -6 -15 10 -53 22 -53 5
0 17 6 28 14 19 14 19 15 -5 40 -23 25 -23 26 -6 52 10 16 17 46 17 76 0 51 7
62 31 52 11 -4 15 -17 13 -49 -2 -23 -6 -47 -10 -53 -3 -6 -1 -32 6 -57 12
-46 12 -47 -15 -67 -37 -27 -36 -58 2 -58 21 0 30 6 34 21 3 12 10 18 15 15 5
-3 15 1 22 10 7 8 19 13 26 10 18 -7 38 20 30 41 -5 12 -9 14 -18 5 -20 -20
-58 -15 -58 8 0 12 -6 34 -14 49 -13 25 -13 29 5 44 10 9 19 28 19 41 0 14 5
28 10 31 5 3 10 16 10 27 0 20 1 20 18 5 21 -19 52 -23 52 -6 0 18 -34 69 -46
69 -6 0 -17 -6 -23 -14 -16 -19 -45 -10 -56 17 -8 17 -17 21 -41 19 -27 -3
-34 2 -45 28 -8 16 -20 30 -26 30 -17 0 -17 -27 -1 -32 8 -3 4 -9 -10 -17 -24
-13 -29 -45 -9 -58 16 -11 -93 -23 -113 -12 -11 6 -6 12 22 24 21 8 38 22 38
30 0 7 8 20 18 27 9 7 17 18 17 23 0 17 34 59 41 52 4 -4 16 1 26 10 17 15 20
15 28 3 6 -8 10 -24 10 -35 0 -13 13 -26 35 -36 40 -19 56 -8 31 20 -15 17
-24 92 -9 77 4 -4 8 -15 8 -24 0 -28 44 -28 54 0 5 15 5 25 -2 30 -22 14 0 17
36 6 34 -11 37 -14 32 -39 -5 -21 -2 -30 14 -38 28 -15 31 -14 31 14 0 28 0
28 34 15 30 -11 33 -35 9 -62 -22 -25 -5 -45 26 -29 12 7 21 16 21 21 0 6 15
16 33 24 33 14 57 6 57 -18 0 -7 6 -18 12 -24 7 -7 13 -20 13 -30 0 -11 8 -17
25 -17 35 0 49 -12 43 -38 -4 -20 -3 -21 10 -4 9 10 28 17 51 17 23 0 43 7 57
21 27 27 43 20 47 -20 3 -30 5 -32 21 -17 16 15 61 12 61 -4 0 -12 49 -18 53
-7 2 6 11 6 24 -2 12 -6 33 -11 47 -11 17 0 33 -10 48 -30 23 -32 68 -42 68
-15 0 9 16 25 36 37 34 20 35 22 18 35 -11 8 -27 12 -37 9 -9 -2 -22 3 -27 12
-9 16 -11 16 -20 0 -13 -22 -67 -33 -85 -18 -8 7 -26 9 -40 6 -18 -5 -25 -2
-25 9 0 18 -16 20 -23 3 -3 -9 -16 -2 -39 20 -19 17 -39 32 -45 32 -6 0 -16 7
-23 15 -12 14 -15 13 -35 -5 -22 -21 -55 -27 -55 -11 0 24 14 41 35 41 28 0
47 22 39 44 -4 10 0 18 10 22 9 4 23 19 32 35 13 25 17 27 34 17 12 -8 20 -24
20 -39 0 -18 8 -29 25 -37 21 -10 25 -9 25 5 0 15 36 53 50 53 4 0 13 -7 20
-15 7 -8 19 -15 28 -15 13 0 13 2 -1 18 -21 23 -21 36 -2 52 17 14 20 40 4 40
-5 0 -8 -4 -5 -9 6 -8 -45 -26 -101 -35 -37 -6 -66 2 -57 15 3 5 10 7 15 3 6
-3 17 3 25 15 10 13 26 21 45 21 19 0 29 5 29 15 0 8 11 17 24 21 14 3 27 12
30 19 3 10 17 13 46 9 39 -5 41 -3 38 18 -2 19 -9 23 -35 23 -40 -1 -43 12 -5
21 44 10 49 12 20 13 -39 1 -35 18 7 25 19 4 39 15 45 24 27 47 37 54 59 40
18 -11 23 -10 37 11 13 18 23 22 46 17 27 -5 28 -5 13 11 -16 15 -16 17 0 26
11 6 15 16 11 32 -5 18 -1 25 16 31 12 4 31 17 41 30 10 13 26 24 35 24 10 0
22 10 27 22 6 13 14 22 20 20 5 -2 13 6 17 18 6 15 13 20 27 15 23 -7 38 12
22 28 -17 17 -13 47 7 48 9 1 24 2 32 3 8 2 26 3 40 4 18 2 21 5 13 13 -9 9
-6 17 12 30 13 11 28 19 33 19 5 0 15 6 21 14 6 7 41 16 77 19 65 6 99 21 88
38 -3 5 -18 9 -34 9 -16 0 -31 4 -35 9 -6 11 -75 3 -89 -10 -6 -5 -22 -9 -37
-9 -15 0 -40 -5 -56 -11 l-28 -11 25 -10 c23 -9 24 -10 7 -20 -14 -7 -27 -6
-52 8 -33 17 -35 17 -54 0 -19 -18 -22 -18 -56 -2 -19 10 -33 21 -30 27 14 21
-16 7 -30 -15 l-16 -24 -34 32 c-56 51 -63 56 -88 56 -14 0 -30 7 -37 15 -10
12 -10 15 4 15 16 0 21 12 9 23 -3 4 -12 2 -18 -3 -9 -8 -17 0 -28 28 -8 21
-22 44 -30 50 -15 13 -51 6 -42 -8 8 -12 -33 -43 -49 -37 -9 4 -16 -1 -18 -11
-3 -13 -8 -9 -21 16 -12 21 -25 32 -40 32 -13 0 -17 -3 -11 -8 24 -15 -20 -76
-61 -84 -23 -4 -65 32 -65 56 0 21 -48 22 -56 1 -12 -29 -214 -13 -214 17 0 4
6 8 13 8 6 1 27 14 46 30 26 22 32 32 23 42 -6 7 -12 29 -14 48 -3 31 -7 35
-33 38 -60 6 -60 10 5 73 66 65 90 108 90 163 0 51 -57 94 -139 102 -33 4 -58
10 -56 15 8 12 -18 24 -47 20 -16 -1 -28 2 -28 8 0 6 -5 11 -11 11 -6 0 -17 7
-25 15 -22 21 -61 19 -69 -3 -8 -28 -51 -45 -76 -31 -27 14 -39 1 -15 -16 22
-17 12 -39 -12 -26 -10 5 -45 4 -85 -1 -63 -10 -70 -13 -79 -39 -6 -19 -29
-39 -66 -61 -70 -41 -73 -42 -71 -31 6 35 -3 56 -31 66 -29 11 -35 22 -32 59
2 23 -40 50 -75 48 -15 -1 -34 -2 -40 -1 -20 2 -15 40 8 77 l21 34 -29 11
c-15 6 -46 12 -69 12 l-40 0 0 49 c0 49 10 59 35 36 11 -11 13 -7 8 20 -10 49
7 80 52 98 30 12 44 26 59 57 36 79 36 95 0 129 -30 28 -37 30 -88 25 -60 -5
-167 -52 -184 -79 -8 -13 -7 -24 2 -39 11 -17 11 -23 1 -30 -8 -5 -2 -8 17
-11 21 -2 30 -9 32 -26 2 -12 12 -28 22 -34 28 -18 14 -35 -45 -57 -40 -15
-68 -19 -109 -15 -58 6 -68 0 -39 -21 16 -12 16 -14 1 -29 -9 -9 -20 -25 -23
-36 -8 -25 -53 -27 -70 -4 -9 13 -16 14 -33 5 -11 -6 -39 -11 -61 -11 -29 0
-41 -4 -41 -15 0 -18 -24 -31 -75 -40 -22 -4 -50 -16 -61 -27 -20 -18 -33 -20
-141 -27 -7 -1 -13 -6 -13 -12 0 -8 13 -9 39 -5 23 3 42 2 46 -4 4 -6 -5 -10
-20 -10 -14 0 -28 -7 -31 -15 -7 -17 -34 -21 -34 -5 0 18 -39 10 -50 -10 -6
-11 -17 -20 -24 -20 -7 0 -25 -10 -40 -21 -23 -18 -37 -21 -87 -17 -47 3 -59
1 -59 -10 0 -11 -9 -13 -41 -9 -49 6 -74 28 -90 76 -6 20 -19 45 -29 56 -10
11 -21 30 -24 42 -4 11 -13 27 -21 33 -9 7 -15 30 -15 52 0 23 -8 51 -19 67
-16 22 -19 43 -18 102 1 64 -2 80 -21 104 -12 15 -22 38 -22 51 0 12 -4 25
-10 29 -5 3 -14 33 -21 66 -9 47 -17 62 -34 69 -25 9 -35 29 -35 67 0 30 -20
104 -32 118 -4 5 -8 24 -8 41 0 21 -9 43 -25 60 -14 15 -25 37 -25 48 0 12 -9
39 -20 61 -11 22 -20 48 -20 58 0 19 -63 81 -145 144 -62 47 -182 101 -243
109 -63 8 -140 33 -104 34 29 0 29 20 -1 20 -33 0 -40 10 -20 32 13 14 14 23
6 41 -26 55 -34 107 -22 142 10 27 10 37 0 49 -10 12 -9 21 4 46 9 17 13 36 9
42 -11 17 -13 68 -3 68 5 0 14 11 20 24 6 13 22 29 35 35 13 5 27 23 30 38 4
15 15 39 26 52 10 13 18 31 18 40 0 9 18 34 40 55 22 21 40 44 40 51 0 46 62
127 157 205 25 22 143 77 178 85 17 3 50 15 75 25 25 10 64 23 86 29 49 13 89
43 108 80 8 14 33 47 55 71 23 25 41 48 41 52 0 5 15 25 79 104 5 6 17 26 26
45 10 18 41 70 70 114 29 44 69 109 90 145 21 36 48 74 59 85 24 24 66 81 66
90 0 3 18 33 40 65 l39 60 -1394 0 -1395 0 0 -749z m1742 -66 c25 -15 37 -55
22 -74 -7 -9 -21 -27 -32 -40 -16 -20 -21 -22 -40 -12 -18 10 -25 8 -39 -9
-18 -21 -53 -28 -53 -10 0 6 7 10 15 10 17 0 19 12 5 26 -14 14 21 98 47 113
20 12 50 10 75 -4z m-178 -120 c-6 -16 -24 -21 -24 -7 0 11 11 22 21 22 5 0 6
-7 3 -15z m-4 -66 c0 -10 -7 -19 -15 -19 -16 0 -19 9 -9 34 8 20 24 11 24 -15z
m-70 1 c0 -5 -12 -10 -27 -10 -22 0 -25 2 -13 10 20 13 40 13 40 0z m-120 -95
c-14 -17 -21 -59 -13 -87 7 -28 48 -22 62 8 8 17 17 24 27 20 9 -3 24 -6 35
-6 17 0 19 -6 17 -42 -3 -35 -8 -44 -38 -61 -35 -21 -97 -34 -202 -44 -49 -4
-58 -2 -58 12 0 16 34 66 78 114 17 19 21 33 18 63 -4 35 -3 38 22 44 15 3 32
7 37 9 19 5 28 -14 15 -30z m-221 -234 c11 -7 10 -11 -7 -22 -16 -10 -18 -17
-10 -35 19 -42 -21 -79 -53 -47 -12 12 -3 73 11 73 4 0 10 9 13 20 5 21 23 25
46 11z m-975 -46 c3 -9 0 -24 -6 -35 -12 -18 -13 -18 -30 8 -10 15 -18 30 -18
35 0 14 48 7 54 -8z m-144 -40 c0 -14 -4 -25 -10 -25 -11 0 -14 33 -3 43 11
11 13 8 13 -18z m1024 -76 c-6 -11 -24 -2 -24 11 0 5 7 7 15 4 8 -4 12 -10 9
-15z m-49 -30 c11 -17 -1 -21 -15 -4 -8 9 -8 15 -2 15 6 0 14 -5 17 -11z
m1885 -1863 c0 -11 -19 -15 -25 -6 -3 5 1 10 9 10 9 0 16 -2 16 -4z m-172 -43
c2 -8 -5 -13 -17 -13 -12 0 -21 6 -21 16 0 18 31 15 38 -3z m85 -77 c4 -10 1
-13 -9 -9 -7 3 -14 9 -14 14 0 14 17 10 23 -5z m792 -58 c43 -27 117 -95 132
-123 9 -15 7 -25 -8 -46 -16 -23 -17 -28 -4 -39 27 -22 18 -40 -21 -40 -27 0
-37 5 -41 20 -3 11 -12 20 -20 20 -8 0 -11 -5 -8 -10 3 -6 -1 -13 -10 -16 -11
-5 -13 -10 -5 -19 8 -10 6 -15 -9 -20 -28 -9 -69 4 -50 15 10 7 10 11 0 24 -9
11 -30 16 -65 16 -29 0 -57 5 -63 11 -16 16 13 69 39 69 30 0 5 27 -33 35 -16
4 -31 11 -34 16 -4 5 -19 9 -34 9 -15 0 -30 3 -34 6 -9 9 4 34 17 34 7 0 25
14 41 30 27 28 34 30 101 30 58 0 80 -5 109 -22z m90 3 c3 -6 -4 -15 -15 -21
-22 -12 -23 -10 -14 14 7 18 20 21 29 7z m1041 -503 c3 -11 3 -23 -1 -26 -8
-8 -35 26 -35 45 0 19 28 4 36 -19z m-181 -114 c12 -5 14 -9 4 -14 -14 -9 -39
-2 -39 11 0 11 12 11 35 3z m179 -432 c8 -14 -5 -50 -20 -56 -10 -4 -14 4 -14
29 0 24 5 35 14 35 8 0 17 -4 20 -8z m156 -12 c0 -5 -5 -10 -11 -10 -5 0 -7 5
-4 10 3 6 8 10 11 10 2 0 4 -4 4 -10z m-1760 -16 c0 -8 -4 -12 -10 -9 -5 3
-10 10 -10 16 0 5 5 9 10 9 6 0 10 -7 10 -16z m1681 -83 c-8 -5 -20 -7 -28 -4
-21 8 -15 13 15 13 20 0 23 -3 13 -9z m-41 -25 c0 -7 -9 -16 -20 -19 -22 -6
-29 18 -7 26 21 9 27 7 27 -7z m-880 -147 c-9 -16 -14 -18 -26 -8 -21 17 -17
29 11 29 23 0 24 -2 15 -21z m-55 1 c3 -5 1 -10 -4 -10 -6 0 -11 5 -11 10 0 6
2 10 4 10 3 0 8 -4 11 -10z m-515 -18 c0 -5 -6 -16 -13 -26 -13 -17 -15 -17
-43 8 l-29 25 43 1 c23 0 42 -4 42 -8z m1224 -88 c10 -26 7 -44 -8 -44 -17 0
-28 24 -20 45 8 19 20 19 28 -1z m-3946 -1 c-10 -2 -26 -2 -35 0 -10 3 -2 5
17 5 19 0 27 -2 18 -5z m3366 -19 c17 -7 22 -34 7 -34 -21 0 -41 13 -41 26 0
15 10 17 34 8z m-854 -62 c0 -13 -12 -22 -22 -16 -10 6 -1 24 13 24 5 0 9 -4
9 -8z m549 -16 c9 -11 5 -16 -19 -26 -16 -7 -30 -16 -30 -21 0 -5 -14 -9 -32
-9 l-32 0 34 34 c38 37 62 43 79 22z m-451 -14 c2 -7 -4 -15 -13 -18 -20 -8
-27 -1 -19 20 7 18 25 17 32 -2z m522 -22 c0 -5 -2 -10 -4 -10 -3 0 -8 5 -11
10 -3 6 -1 10 4 10 6 0 11 -4 11 -10z m-390 -60 c0 -5 -5 -10 -11 -10 -5 0 -7
5 -4 10 3 6 8 10 11 10 2 0 4 -4 4 -10z m-140 -30 c0 -5 -5 -10 -11 -10 -5 0
-7 5 -4 10 3 6 8 10 11 10 2 0 4 -4 4 -10z m358 -19 c-1 -16 4 -36 11 -45 11
-13 11 -19 1 -31 -12 -15 -80 -22 -80 -8 0 3 11 26 25 50 14 23 23 43 20 43
-3 0 -3 5 0 10 12 20 25 9 23 -19z m-2743 9 c4 -6 -7 -10 -24 -10 -17 0 -31 5
-31 10 0 6 11 10 24 10 14 0 28 -4 31 -10z m2560 -10 c3 -5 1 -10 -4 -10 -6 0
-11 5 -11 10 0 6 2 10 4 10 3 0 8 -4 11 -10z m78 -37 c-8 -52 -13 -54 -13 -5
0 23 4 42 9 42 6 0 7 -17 4 -37z m-103 20 c0 -5 -5 -15 -10 -23 -8 -12 -10
-11 -10 8 0 12 5 22 10 22 6 0 10 -3 10 -7z m339 -12 c9 -6 10 -11 2 -15 -13
-8 -31 1 -31 15 0 11 11 11 29 0z m-483 -46 c4 -8 1 -22 -6 -30 -7 -8 -10 -15
-6 -15 13 0 22 -5 39 -21 17 -15 17 -20 5 -45 -14 -29 -38 -44 -38 -24 0 7 -9
23 -20 38 -13 16 -17 29 -11 35 6 6 6 16 -1 27 -6 10 -8 25 -5 34 8 20 36 21
43 1z m-80 -32 c-11 -11 -19 6 -11 24 8 17 8 17 12 0 3 -10 2 -21 -1 -24z
m259 18 c3 -5 1 -12 -5 -16 -5 -3 -10 1 -10 9 0 18 6 21 15 7z m-45 -16 c0 -8
-4 -15 -10 -15 -5 0 -10 7 -10 15 0 8 5 15 10 15 6 0 10 -7 10 -15z m-334 -42
c-10 -10 -19 5 -10 18 6 11 8 11 12 0 2 -7 1 -15 -2 -18z m-2282 -21 c3 -5 2
-22 -3 -38 -8 -31 -37 -41 -35 -11 2 19 -11 23 -21 7 -10 -16 -45 -12 -45 5 0
10 10 15 29 15 16 0 31 6 35 15 6 16 32 20 40 7z m2742 -22 c8 0 14 -5 14 -11
0 -19 -35 -4 -37 16 -2 11 0 14 3 8 3 -7 12 -13 20 -13z m-356 -19 c0 -20 -19
-41 -36 -41 -19 0 -22 33 -6 52 16 20 42 13 42 -11z m450 9 c0 -6 -7 -13 -15
-16 -9 -4 -15 -19 -15 -35 0 -16 -4 -29 -10 -29 -14 0 -12 46 2 70 13 21 38
27 38 10z m-2971 -19 c8 -14 7 -20 -3 -24 -19 -7 -51 17 -42 31 11 18 34 14
45 -7z m2441 -11 c0 -5 -4 -10 -10 -10 -5 0 -10 5 -10 10 0 6 5 10 10 10 6 0
10 -4 10 -10z m300 -14 c0 -15 -18 -31 -26 -23 -7 7 7 37 17 37 5 0 9 -6 9
-14z m-2560 -20 c0 -14 -29 -31 -38 -22 -2 3 -2 12 1 21 8 19 37 20 37 1z
m2520 -12 c0 -2 -9 -4 -21 -4 -11 0 -18 4 -14 10 5 8 35 3 35 -6z m36 -29 c4
-17 13 -25 29 -25 18 0 24 -7 29 -39 3 -22 10 -41 16 -43 5 -1 14 -25 19 -52
5 -27 15 -52 22 -57 12 -8 11 -11 -1 -19 -8 -5 -26 -10 -39 -10 -18 0 -22 4
-16 18 17 38 11 57 -18 60 -22 3 -26 8 -24 25 2 12 -2 40 -9 62 -11 36 -13 38
-19 18 -7 -23 -14 -24 -77 -7 -24 7 -12 31 22 42 15 6 31 20 35 31 9 28 23 26
31 -4z m-221 -5 c3 -5 2 -10 -4 -10 -5 0 -13 5 -16 10 -3 6 -2 10 4 10 5 0 13
-4 16 -10z m-22 -25 c9 -4 17 -12 17 -17 0 -6 -8 -7 -17 -3 -10 3 -30 9 -45
12 -16 3 -28 10 -28 15 0 9 41 5 73 -7z m77 5 c0 -5 -4 -10 -10 -10 -5 0 -10
5 -10 10 0 6 5 10 10 10 6 0 10 -4 10 -10z m335 -30 c3 -5 1 -10 -4 -10 -6 0
-11 5 -11 10 0 6 2 10 4 10 3 0 8 -4 11 -10z m-45 -20 c0 -5 -5 -10 -11 -10
-5 0 -7 5 -4 10 3 6 8 10 11 10 2 0 4 -4 4 -10z m247 -7 c2 -6 -5 -17 -16 -23
-19 -10 -21 -8 -21 15 0 19 5 26 17 23 9 -2 18 -8 20 -15z m-3248 -45 c-5 -18
-9 -34 -9 -35 0 -2 -6 -3 -14 -3 -22 0 -25 22 -7 47 25 35 41 29 30 -9z m2441
3 c0 -12 -20 -25 -27 -18 -7 7 6 27 18 27 5 0 9 -4 9 -9z m330 -5 c0 -7 -7
-19 -15 -26 -13 -11 -15 -26 -9 -84 l7 -70 -24 16 c-20 13 -24 24 -25 64 0 27
-3 54 -5 59 -6 15 33 55 53 55 10 0 18 -6 18 -14z m-2300 0 c0 -3 -4 -8 -10
-11 -5 -3 -10 -1 -10 4 0 6 5 11 10 11 6 0 10 -2 10 -4z m2174 -41 c-7 -17
-20 -20 -28 -6 -7 10 3 21 20 21 8 0 11 -6 8 -15z m590 9 c42 -6 66 -24 31
-24 -23 0 -18 -20 11 -46 21 -20 32 -23 65 -18 32 5 39 4 39 -10 0 -11 -9 -16
-30 -16 -19 0 -34 -7 -42 -20 -17 -26 -22 -25 -36 5 -8 17 -19 24 -34 23 -13
0 -36 6 -52 15 -15 8 -44 14 -63 12 l-36 -3 20 20 c16 16 25 18 40 10 25 -14
63 -4 63 15 0 12 -8 14 -35 10 -39 -6 -55 6 -28 22 22 12 27 13 87 5z m-801
-18 c12 -10 15 -16 7 -21 -16 -10 -40 2 -40 20 0 18 9 19 33 1z m620 -1 c12
-8 17 -20 13 -33 -4 -11 1 -28 14 -42 20 -23 28 -66 11 -55 -5 3 -16 -4 -24
-15 -7 -11 -24 -21 -37 -22 -18 -2 -25 3 -31 25 -6 22 -4 27 11 27 16 0 18 7
13 65 -4 67 -1 74 30 50z m-409 -61 c29 -5 36 -11 36 -30 0 -27 -3 -29 -53
-38 -30 -6 -39 -4 -44 10 -3 9 0 20 8 25 11 6 11 11 1 21 -16 16 -15 31 2 25
8 -3 31 -9 50 -13z m255 7 c9 -6 10 -10 2 -16 -16 -9 -44 2 -36 15 8 12 16 12
34 1z m-3064 -21 c3 -5 1 -10 -4 -10 -6 0 -11 5 -11 10 0 6 2 10 4 10 3 0 8
-4 11 -10z m2603 -18 c2 -7 -2 -10 -12 -6 -9 3 -16 11 -16 16 0 13 23 5 28
-10z m507 -58 c8 -44 4 -49 -39 -46 -18 1 -46 -2 -61 -8 -33 -13 -50 -1 -41
28 5 15 15 20 42 19 23 -1 42 6 56 21 30 30 35 28 43 -14z m205 23 c0 -8 -9
-22 -20 -32 -18 -17 -20 -17 -20 -1 0 18 19 45 33 46 4 0 7 -6 7 -13z m118
-63 c-10 -10 -28 6 -28 24 0 15 1 15 17 -1 9 -9 14 -19 11 -23z m-592 -42
c-30 -31 -40 -25 -31 18 5 25 11 30 26 25 12 -4 19 -1 20 7 1 7 3 5 6 -6 3
-11 -5 -28 -21 -44z m105 22 c18 -22 3 -44 -31 -44 -36 0 -52 27 -27 45 9 7
14 15 11 18 -3 3 3 3 15 0 11 -3 25 -11 32 -19z m-2881 7 c19 -5 53 -12 75
-16 l39 -7 -24 -18 c-14 -10 -25 -26 -25 -35 0 -10 -18 -27 -40 -39 -22 -11
-45 -28 -51 -36 -7 -8 -16 -12 -20 -7 -4 4 -2 13 4 19 17 17 15 68 -2 68 -20
0 -27 27 -14 55 13 28 11 28 58 16z m3230 -6 c0 -8 -4 -15 -10 -15 -5 0 -10 7
-10 15 0 8 5 15 10 15 6 0 10 -7 10 -15z m301 -3 c12 -12 17 -25 13 -35 -7
-18 -7 -18 -40 -22 -12 -1 -26 -5 -32 -9 -6 -3 -14 -1 -18 5 -9 15 16 30 38
23 15 -4 17 -1 12 25 -7 36 -1 38 27 13z m-461 -9 c0 -5 -4 -15 -10 -23 -5 -9
-5 -19 2 -27 18 -22 34 -14 36 19 3 34 8 45 18 36 11 -12 30 -128 26 -158 -4
-27 -8 -31 -31 -28 -24 3 -26 0 -28 -34 -2 -32 1 -38 17 -38 11 0 20 -4 20
-10 0 -13 -37 -13 -42 1 -2 6 -27 11 -55 12 -29 1 -58 8 -65 15 -11 12 -4 13
42 10 l54 -3 8 39 c6 26 5 42 -2 46 -6 4 -8 18 -5 31 3 14 -2 39 -13 61 -14
26 -16 40 -9 47 13 13 37 15 37 4z m-2826 -18 c-7 -17 -20 -20 -28 -6 -7 10 3
21 20 21 8 0 11 -6 8 -15z m86 0 c6 -8 9 -19 5 -25 -11 -17 -30 -11 -42 15
-10 22 -9 25 7 25 10 0 23 -7 30 -15z m2390 0 c0 -8 -4 -15 -9 -15 -13 0 -22
16 -14 24 11 11 23 6 23 -9z m710 3 c0 -12 -20 -20 -36 -14 -8 3 -13 10 -9 15
6 11 45 10 45 -1z m177 6 c-3 -3 -12 -4 -19 -1 -8 3 -5 6 6 6 11 1 17 -2 13
-5z m-1077 -34 c0 -5 -4 -10 -10 -10 -5 0 -10 5 -10 10 0 6 5 10 10 10 6 0 10
-4 10 -10z m745 0 c6 -9 -8 -14 -29 -11 -18 4 -36 -23 -33 -52 1 -16 -3 -32
-9 -34 -17 -6 -26 27 -12 44 9 11 9 16 -2 23 -17 10 -15 12 25 27 40 14 53 15
60 3z m193 -52 c-3 -7 -12 -14 -21 -16 -12 -2 -15 1 -11 12 7 19 38 22 32 4z
m-455 -30 c23 -40 6 -54 -36 -30 -18 10 -31 13 -34 7 -11 -32 -23 -40 -40 -29
-23 15 -31 46 -9 38 9 -4 16 -1 16 6 0 8 10 9 29 5 24 -5 30 -2 36 14 9 29 17
26 38 -11z m671 -4 c5 -13 15 -15 46 -11 37 5 39 4 29 -14 -12 -23 -42 -25
-63 -4 -8 8 -19 15 -24 15 -5 0 -9 7 -9 15 0 20 13 19 21 -1z m-3294 -34 c-20
-12 -33 -1 -19 16 9 11 15 12 23 4 8 -8 7 -13 -4 -20z m3170 -11 c0 -6 7 -17
15 -26 21 -20 10 -33 -27 -33 -49 0 -93 20 -110 51 -19 33 -15 40 22 33 15 -4
31 -1 34 5 8 13 66 -13 66 -30z m85 31 c-3 -5 -10 -10 -16 -10 -5 0 -9 5 -9
10 0 6 7 10 16 10 8 0 12 -4 9 -10z m-261 -26 c23 -9 20 -34 -5 -34 -25 0 -59
17 -59 30 0 11 40 13 64 4z m-3472 -56 c-14 -14 -32 -1 -32 21 0 28 12 33 28
10 10 -14 11 -24 4 -31z m3787 -24 c2 -2 1 -10 -3 -19 -7 -19 -21 -12 -37 17
-10 18 -8 19 13 13 12 -4 25 -9 27 -11z m301 12 c0 -11 -19 -15 -25 -6 -3 5 1
10 9 10 9 0 16 -2 16 -4z m-4120 -41 c0 -8 -4 -15 -10 -15 -5 0 -10 7 -10 15
0 8 5 15 10 15 6 0 10 -7 10 -15z m2726 -21 c-9 -8 -16 -22 -16 -30 0 -18 -19
-18 -26 0 -7 19 16 45 39 46 17 0 17 -1 3 -16z m1193 7 c8 -5 11 -16 8 -25 -5
-14 -11 -15 -27 -6 -21 11 -25 22 -13 33 8 9 15 9 32 -2z m-775 -20 c7 -11 -3
-41 -14 -41 -11 0 -21 30 -14 41 7 12 21 12 28 0z m-3086 -24 c2 -10 -4 -20
-13 -23 -21 -9 -28 0 -20 26 8 24 28 22 33 -3z m4222 -2 c0 -16 -35 -21 -44
-6 -8 12 4 21 26 21 10 0 18 -7 18 -15z m-170 -5 c0 -13 -28 -25 -38 -16 -3 4
0 11 8 16 20 13 30 12 30 0z m-860 -16 c0 -8 -9 -14 -20 -14 -11 0 -20 6 -20
13 0 7 9 13 20 14 11 1 20 -4 20 -13z m900 1 c0 -8 -2 -15 -4 -15 -2 0 -6 7
-10 15 -3 8 -1 15 4 15 6 0 10 -7 10 -15z m-4180 1 c0 -16 -14 -36 -26 -36
-14 0 -19 22 -7 33 7 8 33 10 33 3z"/>
<path d="M320 438 c0 -9 5 -20 11 -23 17 -11 20 0 4 21 -13 17 -14 17 -15 2z"/>
<path d="M3623 6208 c2 -7 9 -13 15 -12 7 1 23 2 37 3 42 2 28 21 -16 21 -28
0 -39 -4 -36 -12z"/>
<path d="M3490 6190 c0 -15 35 -29 49 -20 8 4 10 13 7 19 -9 14 -56 15 -56 1z"/>
<path d="M4615 6140 c-19 -8 -19 -9 3 -9 12 -1 22 4 22 9 0 6 -1 10 -2 9 -2 0
-12 -4 -23 -9z"/>
<path d="M3385 6090 c-3 -6 5 -10 19 -10 14 0 28 5 31 10 3 6 -5 10 -19 10
-14 0 -28 -4 -31 -10z"/>
<path d="M4210 6076 c0 -18 35 -22 45 -6 3 6 2 10 -4 10 -5 0 -16 3 -25 6 -11
4 -16 1 -16 -10z"/>
<path d="M4416 6061 c-9 -14 22 -29 67 -33 43 -4 50 14 10 24 -15 3 -38 9 -49
13 -12 4 -25 2 -28 -4z"/>
<path d="M4358 6043 c7 -3 16 -2 19 1 4 3 -2 6 -13 5 -11 0 -14 -3 -6 -6z"/>
<path d="M5260 6004 c0 -9 7 -14 17 -12 25 5 28 28 4 28 -12 0 -21 -6 -21 -16z"/>
<path d="M3220 5990 c0 -13 5 -17 14 -14 24 9 28 34 6 34 -13 0 -20 -7 -20
-20z"/>
<path d="M3756 5986 c3 -9 11 -16 16 -16 13 0 5 23 -10 28 -7 2 -10 -2 -6 -12z"/>
<path d="M4650 5976 c-4 -12 -15 -28 -24 -36 -21 -17 -13 -58 21 -108 19 -29
22 -39 11 -47 -7 -6 -18 -19 -24 -30 -15 -26 -47 -25 -59 2 -5 12 -27 29 -49
37 l-40 16 -28 -31 -29 -31 17 -57 c9 -31 20 -59 26 -62 5 -4 8 -16 6 -28 -3
-20 -5 -19 -40 13 -30 27 -38 43 -38 68 0 19 6 40 13 47 10 10 9 15 -5 25 -23
17 -23 43 1 56 13 6 17 17 14 30 -3 11 0 20 6 20 17 0 13 17 -13 47 -21 24
-26 26 -41 13 -9 -8 -37 -15 -62 -17 -30 -1 -54 -10 -68 -23 -12 -11 -35 -20
-53 -20 -34 0 -43 -14 -16 -24 9 -3 31 -6 50 -6 20 0 34 -5 35 -12 1 -7 2 -25
3 -40 0 -14 4 -30 8 -34 11 -11 -1 -24 -23 -24 -24 0 -24 -4 3 -41 19 -25 20
-33 10 -49 -7 -11 -12 -26 -12 -35 0 -23 -36 -38 -53 -21 -9 9 -19 11 -28 5
-10 -6 -10 -9 -1 -9 6 0 12 -11 12 -25 0 -16 6 -25 15 -25 8 0 15 -7 15 -15 0
-8 -9 -15 -20 -15 -11 0 -23 -7 -26 -15 -4 -8 -16 -15 -29 -15 -12 0 -28 7
-35 15 -18 21 -57 19 -70 -5 -11 -21 -30 -27 -30 -10 0 18 82 71 102 64 12 -3
18 0 18 9 0 17 -27 30 -42 21 -6 -4 -8 5 -6 22 2 21 -3 32 -17 40 -14 7 -20
19 -19 42 1 18 -2 32 -7 32 -5 0 -9 -7 -9 -15 0 -22 -18 -18 -25 5 -8 25 -66
43 -78 23 -4 -7 -6 -17 -3 -21 3 -5 -15 -8 -40 -7 -24 0 -44 -3 -44 -7 0 -4
-7 -8 -15 -8 -30 0 -14 -29 28 -52 25 -14 49 -37 59 -58 10 -19 28 -38 40 -43
22 -8 21 -10 -19 -30 -40 -19 -44 -20 -61 -4 -17 16 -21 15 -63 -12 -24 -15
-53 -38 -63 -50 -19 -21 -19 -22 1 -48 13 -19 30 -28 52 -29 18 -1 35 -4 38
-7 3 -4 14 4 23 16 18 21 19 22 48 5 17 -10 36 -18 43 -18 23 0 57 -40 52 -61
-4 -15 -11 -17 -32 -13 -40 10 -61 23 -61 39 0 10 -11 15 -32 15 -30 0 -31 -1
-12 -15 10 -8 24 -15 30 -15 7 0 14 -9 17 -20 3 -12 14 -21 29 -21 12 -1 30
-2 38 -3 8 -1 25 -7 37 -14 12 -7 26 -12 30 -11 4 1 16 1 26 0 14 -1 16 -5 7
-20 -14 -27 -14 -27 23 -42 17 -7 38 -21 45 -31 7 -10 26 -18 41 -18 43 0 77
-21 73 -46 -2 -16 5 -23 34 -32 27 -8 42 -8 50 -1 17 14 34 3 34 -21 0 -11 18
-31 43 -49 23 -16 56 -42 72 -59 37 -36 106 -72 139 -72 26 0 36 -16 36 -59 0
-19 14 -44 41 -75 23 -26 39 -53 36 -60 -3 -8 6 -27 21 -44 26 -27 48 -62 83
-125 8 -16 30 -42 48 -58 18 -16 61 -53 95 -84 77 -69 84 -75 91 -75 3 0 13
-8 23 -17 10 -10 29 -28 43 -40 13 -12 40 -41 59 -64 19 -22 47 -54 63 -69 15
-15 27 -34 27 -42 0 -7 14 -26 31 -41 24 -21 30 -32 25 -52 -5 -19 -1 -28 19
-41 19 -12 23 -22 19 -40 -4 -16 0 -31 10 -43 9 -10 19 -36 23 -57 3 -22 11
-58 19 -82 8 -23 14 -67 14 -97 0 -29 5 -57 10 -60 6 -3 10 -17 10 -30 0 -13
4 -26 9 -29 5 -3 11 -20 14 -38 7 -36 26 -134 31 -158 9 -44 40 -137 48 -147
6 -7 6 -19 -1 -32 -15 -28 -14 -77 3 -110 9 -17 11 -32 5 -42 -13 -21 -12 -26
18 -54 27 -24 53 -33 53 -17 0 4 17 12 37 19 29 9 41 8 57 -2 15 -10 63 -14
169 -14 81 0 167 -3 191 -6 26 -4 52 -2 65 4 15 8 27 9 41 1 15 -8 36 -6 81 5
48 13 64 14 69 4 5 -6 15 -9 24 -6 15 6 16 120 16 1263 l0 1257 -24 -22 c-20
-19 -23 -30 -19 -57 6 -37 -6 -44 -32 -18 -9 10 -26 14 -40 12 -36 -7 -49 6
-49 54 -1 43 -1 43 -38 43 -20 0 -42 6 -49 13 -19 18 -39 15 -39 -8 0 -18 10
-23 45 -23 6 0 10 -12 11 -28 1 -20 -6 -30 -24 -38 -14 -7 -29 -8 -36 -3 -23
19 -66 22 -94 8 -47 -24 -69 -27 -83 -14 -13 12 -115 68 -125 68 -2 0 -4 -13
-4 -29 0 -35 -15 -48 -35 -31 -13 10 -13 16 0 39 17 33 9 71 -14 70 -10 0 -11
-2 -3 -6 13 -5 17 -25 5 -21 -5 1 -21 -10 -37 -25 -31 -29 -63 -35 -71 -14 -4
8 -23 11 -60 9 -63 -4 -71 8 -20 28 19 8 35 17 35 22 0 16 25 8 38 -12 12 -20
13 -20 47 7 19 16 35 35 35 44 0 9 10 29 22 44 l21 27 -24 19 c-29 22 -52 24
-68 5 -7 -8 -21 -12 -31 -9 -15 4 -20 0 -20 -16 0 -12 6 -21 14 -21 8 0 22
-10 30 -22 14 -20 14 -23 0 -31 -9 -5 -27 -7 -40 -4 -13 2 -24 0 -24 -5 0 -4
-11 -6 -24 -2 -13 3 -26 1 -29 -4 -5 -6 -114 -5 -124 2 -1 0 -4 13 -8 29 -9
33 13 38 33 7 14 -23 35 -26 51 -6 8 10 5 26 -13 69 l-25 55 -46 0 c-43 0 -46
-2 -52 -29 -3 -16 -11 -29 -18 -29 -7 0 -18 -7 -25 -15 -7 -8 -19 -15 -26 -15
-22 0 -16 31 6 37 20 5 29 47 11 57 -15 9 -20 59 -8 78 9 14 8 21 -6 35 -18
18 -21 13 -18 -32 1 -14 -10 -26 -34 -39 -47 -25 -64 -12 -40 33 14 28 14 34
1 52 -14 21 -15 20 -18 -12 -3 -30 -6 -34 -33 -34 -104 -2 -141 -52 -52 -72
35 -7 39 -15 27 -47 -9 -23 -7 -26 22 -34 17 -4 33 -13 36 -20 6 -19 -87 -15
-128 6 -30 15 -34 22 -35 56 0 40 -7 48 -57 66 -37 13 -36 36 2 44 18 3 30 12
30 21 0 19 -9 19 -34 0 -17 -13 -22 -13 -38 1 -14 13 -21 14 -32 5 -8 -7 -12
-19 -9 -27 7 -19 -21 -18 -38 2 -11 14 -10 18 5 30 22 16 15 44 -12 44 -35 0
-59 -51 -29 -64 8 -3 7 -9 -6 -20 -18 -14 -18 -15 7 -31 14 -10 26 -22 26 -28
0 -6 7 -18 16 -28 14 -15 13 -19 -9 -43 -25 -26 -47 -34 -47 -16 0 6 5 10 10
10 7 0 7 6 0 20 -6 11 -17 20 -24 20 -19 0 -28 -40 -10 -47 22 -8 17 -22 -18
-55 -28 -26 -30 -32 -19 -50 7 -11 11 -21 9 -23 -2 -1 -25 5 -53 14 -49 16
-50 17 -53 59 l-3 42 40 0 c33 0 41 4 41 18 0 10 -5 23 -12 30 -9 9 -8 16 4
29 9 10 18 29 20 43 2 17 9 25 23 25 13 0 21 8 23 22 2 16 -1 20 -15 17 -23
-5 -35 4 -51 39 -18 42 -15 58 22 102 28 33 36 38 49 27 22 -18 29 -1 19 46
-7 31 -6 41 6 49 19 11 6 37 -15 29 -8 -3 -25 1 -38 10 -13 9 -40 17 -60 18
-30 3 -38 -1 -45 -18z m-320 -286 c0 -5 -4 -10 -10 -10 -5 0 -10 5 -10 10 0 6
5 10 10 10 6 0 10 -4 10 -10z m309 -39 c12 -16 21 -36 21 -44 0 -19 -32 -31
-59 -22 -13 4 -20 0 -24 -15 -3 -11 -12 -20 -21 -20 -22 0 -20 28 1 32 12 2
18 14 19 36 2 32 19 62 35 62 4 0 17 -13 28 -29z m-632 -46 c2 -12 -7 -27 -22
-38 -25 -18 -25 -18 -35 9 -8 19 -7 30 1 41 17 20 53 12 56 -12z m993 -137
c13 -4 13 -7 2 -21 -18 -21 -42 -11 -42 19 0 19 -5 24 -26 24 -15 0 -33 8 -40
18 -18 23 -17 30 4 34 10 3 31 -10 52 -32 20 -20 42 -39 50 -42z m-503 -35
c-4 -23 -3 -24 34 -18 45 8 49 1 17 -26 -32 -26 -39 -24 -71 16 -23 28 -26 39
-17 50 18 21 43 6 37 -22z m322 -6 c12 -15 5 -27 -16 -27 -7 0 -13 9 -13 20 0
23 13 26 29 7z m312 -7 c5 0 9 -4 9 -10 0 -5 -6 -10 -14 -10 -8 0 -23 -11 -34
-25 -19 -24 -21 -24 -37 -8 -17 16 -16 18 10 41 15 13 34 21 42 18 8 -3 19 -6
24 -6z m-1051 -20 c0 -12 -28 -25 -36 -17 -9 9 6 27 22 27 8 0 14 -5 14 -10z
m351 -10 c10 -6 19 -20 19 -30 0 -21 -15 -27 -25 -10 -4 6 -11 8 -16 5 -5 -4
-9 -2 -9 4 0 5 -3 16 -6 25 -7 18 8 21 37 6z m-406 -11 c8 -12 -23 -49 -41
-49 -25 0 -27 23 -4 42 25 21 36 22 45 7z m1208 -14 c1 -5 -6 -11 -15 -13 -11
-2 -18 3 -18 13 0 17 30 18 33 0z m-1113 -55 c24 -19 50 -30 69 -30 17 0 31
-5 31 -10 0 -6 16 -18 35 -27 28 -14 41 -15 72 -5 46 14 69 1 52 -30 -8 -15
-18 -19 -37 -15 -15 3 -40 -2 -55 -10 -36 -18 -65 -11 -103 24 -51 49 -87 73
-110 73 -31 0 -39 18 -18 41 9 10 19 19 22 19 2 0 21 -13 42 -30z m551 -16 c8
-10 23 -14 40 -12 24 4 26 2 19 -16 -4 -12 -12 -21 -19 -20 -6 1 -29 2 -51 3
-28 1 -40 5 -40 16 0 8 5 15 10 15 6 0 10 7 10 15 0 20 14 19 31 -1z m679 7
c0 -19 -22 -23 -38 -7 -15 15 -14 16 11 16 15 0 27 -4 27 -9z m-970 -21 c0 -5
-5 -10 -11 -10 -5 0 -7 5 -4 10 3 6 8 10 11 10 2 0 4 -4 4 -10z m1028 -63 c6
-5 12 -16 12 -23 0 -20 -37 -17 -44 4 -3 9 -9 23 -12 30 -6 13 21 7 44 -11z
m725 -12 c-23 -31 -28 -31 -31 0 -1 21 3 25 24 25 25 0 25 0 7 -25z m-1403 1
c0 -11 -19 -15 -25 -6 -3 5 1 10 9 10 9 0 16 -2 16 -4z m-267 -26 c-4 -17 -23
-29 -23 -16 0 2 -3 11 -6 20 -4 11 0 16 14 16 15 0 19 -5 15 -20z m63 -86 c-5
-13 -10 -14 -18 -6 -6 6 -8 18 -4 28 5 13 10 14 18 6 6 -6 8 -18 4 -28z m241
14 c-3 -8 -6 -5 -6 6 -1 11 2 17 5 13 3 -3 4 -12 1 -19z m-467 -30 c0 -16 -3
-19 -11 -11 -6 6 -8 16 -5 22 11 17 16 13 16 -11z m425 13 c7 -12 -22 -41 -41
-41 -12 0 -12 4 2 25 17 26 29 31 39 16z m875 -42 c0 -7 -5 -29 -11 -50 -10
-32 -15 -37 -29 -29 -27 15 -35 59 -13 76 22 16 53 18 53 3z m-1046 -5 c9 -3
16 -10 16 -15 0 -11 -31 -12 -56 -2 -16 6 -16 7 2 14 10 4 20 8 21 8 1 1 8 -2
17 -5z m-104 -19 c0 -8 -4 -15 -9 -15 -13 0 -22 16 -14 24 11 11 23 6 23 -9z
m1690 11 c0 -11 -19 -15 -25 -6 -3 5 1 10 9 10 9 0 16 -2 16 -4z m-1362 -58
c-3 -7 -13 -15 -24 -17 -16 -3 -17 -1 -5 13 16 19 34 21 29 4z m932 -143 c0
-8 -7 -15 -15 -15 -8 0 -15 7 -15 15 0 8 7 15 15 15 8 0 15 -7 15 -15z m-140
-9 c0 -3 -4 -8 -10 -11 -5 -3 -10 -1 -10 4 0 6 5 11 10 11 6 0 10 -2 10 -4z
m206 -64 c23 -16 23 -42 0 -69 -21 -25 -26 -26 -50 -15 l-27 12 23 40 c23 40
34 46 54 32z"/>
<path d="M4556 5973 c-12 -12 -6 -33 9 -33 8 0 15 6 15 14 0 17 -14 28 -24 19z"/>
<path d="M4460 5934 c0 -8 5 -12 10 -9 6 3 10 10 10 16 0 5 -4 9 -10 9 -5 0
-10 -7 -10 -16z"/>
<path d="M3490 5905 c-14 -16 -5 -35 16 -35 15 0 20 35 5 44 -5 3 -14 -1 -21
-9z"/>
<path d="M3921 5891 c-7 -13 -6 -24 3 -37 8 -10 12 -24 9 -31 -3 -7 2 -13 11
-13 18 0 22 15 6 25 -7 4 -7 12 0 25 14 27 12 50 -5 50 -8 0 -19 -8 -24 -19z"/>
<path d="M3367 5893 c-9 -9 12 -33 29 -33 17 0 18 12 2 28 -14 14 -22 15 -31
5z"/>
<path d="M4525 5889 c-10 -15 3 -25 16 -12 7 7 7 13 1 17 -6 3 -14 1 -17 -5z"/>
<path d="M3707 5863 c-8 -13 5 -113 14 -113 5 0 9 -4 9 -10 0 -5 -11 -10 -25
-10 -19 0 -29 -10 -45 -39 -17 -34 -18 -41 -4 -51 8 -7 33 -13 55 -14 37 -1
40 1 37 24 -3 23 0 25 35 23 35 -2 37 -1 37 26 0 33 16 43 43 29 12 -6 23 -5
34 3 8 7 30 12 49 11 37 -3 39 0 24 29 -7 12 -21 19 -39 19 -16 0 -34 7 -41
15 -19 22 -39 18 -50 -10 -13 -33 -32 -40 -67 -23 -20 9 -28 21 -30 42 -1 16
-4 35 -7 43 -6 14 -22 18 -29 6z"/>
<path d="M4825 5841 c-3 -5 -1 -12 5 -16 12 -7 30 2 30 16 0 12 -27 12 -35 0z"/>
<path d="M3010 5832 c0 -14 23 -32 40 -31 10 0 11 2 3 6 -7 2 -13 11 -13 19 0
8 -7 14 -15 14 -8 0 -15 -4 -15 -8z"/>
<path d="M3997 5825 c-4 -8 -2 -17 3 -20 6 -4 10 3 10 14 0 25 -6 27 -13 6z"/>
<path d="M5223 5824 c-9 -23 13 -40 32 -24 12 10 13 16 4 26 -15 18 -28 18
-36 -2z"/>
<path d="M2810 5806 c0 -14 29 -31 38 -22 2 3 2 12 -1 21 -8 19 -37 20 -37 1z"/>
<path d="M4051 5807 c-14 -17 -4 -27 26 -27 25 0 29 10 11 28 -15 15 -23 15
-37 -1z"/>
<path d="M4910 5805 c0 -8 7 -15 15 -15 10 0 15 -11 15 -35 0 -46 26 -47 45
-2 13 29 13 33 -7 50 -25 21 -68 23 -68 2z"/>
<path d="M3203 5800 c-13 -5 -23 -14 -23 -19 0 -5 -10 -11 -22 -15 -20 -5 -40
-19 -98 -68 -12 -11 -7 -14 30 -19 25 -3 50 -4 57 -2 6 3 21 0 32 -7 15 -7 32
-8 57 -1 30 8 35 7 33 -7 -1 -9 1 -25 6 -35 7 -16 16 -17 74 -12 48 4 73 1 91
-9 14 -9 35 -20 48 -25 25 -12 29 -26 7 -34 -8 -4 -14 -18 -13 -34 1 -15 -2
-35 -6 -44 -5 -12 3 -20 36 -32 54 -21 59 -21 52 -2 -4 8 -14 15 -23 15 -10 0
-16 8 -16 25 0 14 3 25 8 25 4 0 7 -4 7 -10 0 -5 7 -10 15 -10 9 0 15 9 15 21
0 14 10 24 30 32 26 10 30 16 30 49 0 32 -4 40 -25 48 -14 5 -25 14 -25 19 0
5 -15 26 -34 47 -30 33 -36 36 -41 21 -4 -9 -2 -24 5 -33 23 -27 -2 -39 -57
-27 -39 9 -51 9 -64 -3 -25 -22 -48 -17 -101 26 -28 22 -61 40 -74 40 -20 0
-56 37 -39 41 3 1 8 2 13 3 32 8 52 20 52 32 0 16 -6 17 -37 4z"/>
<path d="M5045 5800 c3 -5 11 -10 16 -10 6 0 7 5 4 10 -3 6 -11 10 -16 10 -6
0 -7 -4 -4 -10z"/>
<path d="M5725 5780 c19 -21 55 -27 55 -10 0 10 -41 30 -62 30 -6 0 -3 -9 7
-20z"/>
<path d="M2803 5724 c-9 -23 25 -48 44 -32 11 9 11 14 -3 29 -21 23 -33 24
-41 3z"/>
<path d="M2945 5698 c-19 -11 -19 -11 0 -18 24 -9 35 -4 35 16 0 17 -8 17 -35
2z"/>
<path d="M4132 5658 c2 -18 11 -24 34 -26 29 -3 31 -1 27 22 -4 21 -11 26 -35
26 -25 0 -29 -4 -26 -22z"/>
<path d="M2834 5629 c-3 -6 0 -17 7 -24 12 -11 16 -11 27 0 10 12 8 16 -7 25
-14 7 -22 7 -27 -1z"/>
<path d="M2963 5582 c-43 -14 -54 -26 -30 -34 20 -8 137 4 137 13 0 5 -9 9
-20 9 -11 0 -20 4 -20 9 0 16 -24 17 -67 3z"/>
<path d="M5595 5590 c-3 -5 1 -10 9 -10 8 0 18 5 21 10 3 6 -1 10 -9 10 -8 0
-18 -4 -21 -10z"/>
<path d="M3750 5545 c-11 -13 -11 -20 0 -40 11 -20 18 -23 49 -17 55 9 65 25
31 51 -34 25 -63 27 -80 6z"/>
<path d="M3295 5541 c-8 -15 3 -31 21 -31 9 0 14 7 12 17 -4 20 -24 28 -33 14z"/>
<path d="M3635 5530 c-3 -5 -1 -10 4 -10 6 0 11 5 11 10 0 6 -2 10 -4 10 -3 0
-8 -4 -11 -10z"/>
<path d="M6392 5515 c0 -16 2 -22 5 -12 2 9 2 23 0 30 -3 6 -5 -1 -5 -18z"/>
<path d="M6337 5460 c-13 -35 -14 -46 -5 -62 5 -10 16 -18 24 -18 12 0 14 5 9
18 -4 9 -11 31 -15 47 -5 20 -9 25 -13 15z"/>
<path d="M3630 5445 c-15 -18 -5 -35 21 -35 24 0 37 29 18 41 -19 12 -25 11
-39 -6z"/>
<path d="M6270 5399 c0 -5 5 -7 10 -4 6 3 10 8 10 11 0 2 -4 4 -10 4 -5 0 -10
-5 -10 -11z"/>
<path d="M5947 5384 c-4 -4 -7 -16 -7 -26 0 -16 6 -19 33 -16 24 2 32 8 32 23
0 14 -8 21 -25 23 -14 2 -29 0 -33 -4z"/>
<path d="M2385 5112 c-3 -4 -38 -7 -76 -8 -56 -1 -75 -6 -93 -23 -14 -13 -35
-21 -58 -21 -30 0 -44 -8 -82 -47 -25 -25 -46 -52 -46 -58 0 -7 -12 -25 -27
-41 -42 -46 -95 -232 -77 -271 5 -10 9 -52 11 -93 10 -329 15 -383 42 -403 10
-6 26 -25 36 -40 10 -16 40 -39 67 -53 37 -19 48 -30 48 -48 0 -14 6 -31 14
-39 8 -7 12 -24 9 -38 -5 -29 18 -54 42 -45 12 4 14 14 10 40 -9 47 2 75 33
87 63 24 189 41 266 36 72 -5 83 -3 119 20 49 31 85 69 98 106 6 15 14 27 19
27 10 0 90 82 90 93 0 5 16 34 35 66 27 44 37 73 45 135 12 96 2 141 -40 181
-16 15 -37 51 -45 79 -22 69 -64 155 -93 190 -24 29 -129 113 -167 133 -11 6
-45 14 -75 18 -30 4 -65 11 -76 16 -12 4 -25 5 -29 1z"/>
<path d="M760 4659 c0 -7 -10 -9 -25 -5 -20 5 -25 3 -25 -14 0 -27 23 -25 57
5 22 19 24 24 11 25 -10 0 -18 -5 -18 -11z"/>
<path d="M4398 3627 c-26 -36 -14 -67 34 -97 44 -27 84 -25 145 5 108 54 93
80 -57 105 l-101 16 -21 -29z"/>
<path d="M3340 3325 c0 -9 5 -15 11 -13 6 2 11 8 11 13 0 5 -5 11 -11 13 -6 2
-11 -4 -11 -13z"/>
<path d="M5624 2701 c-46 -11 -51 -17 -69 -72 -10 -28 -23 -63 -30 -76 -8 -14
-11 -32 -8 -40 3 -7 -1 -21 -10 -31 -8 -9 -18 -28 -22 -41 -7 -22 -5 -23 26
-17 19 3 52 9 75 12 31 5 45 14 64 41 22 32 22 36 7 44 -9 6 -21 18 -27 29
-14 27 20 44 82 41 27 -1 58 4 69 10 18 9 20 17 15 52 -4 23 -12 45 -19 49
-15 9 -111 9 -153 -1z m-24 -156 c0 -8 -9 -15 -20 -15 -11 0 -20 7 -20 15 0 8
9 15 20 15 11 0 20 -7 20 -15z"/>
<path d="M6310 2626 c0 -9 7 -16 16 -16 9 0 14 5 12 12 -6 18 -28 21 -28 4z"/>
<path d="M4978 2583 c7 -3 16 -2 19 1 4 3 -2 6 -13 5 -11 0 -14 -3 -6 -6z"/>
<path d="M4905 2560 c3 -5 11 -10 16 -10 6 0 7 5 4 10 -3 6 -11 10 -16 10 -6
0 -7 -4 -4 -10z"/>
<path d="M4945 2530 c3 -5 8 -10 11 -10 2 0 4 5 4 10 0 6 -5 10 -11 10 -5 0
-7 -4 -4 -10z"/>
<path d="M6150 2475 c0 -8 7 -15 16 -15 14 0 14 3 4 15 -7 8 -14 15 -16 15 -2
0 -4 -7 -4 -15z"/>
<path d="M4715 2450 c-3 -5 1 -13 10 -16 22 -9 29 1 11 15 -10 8 -16 9 -21 1z"/>
<path d="M5723 2402 c-19 -14 -20 -20 -9 -34 7 -10 23 -18 35 -18 16 0 21 6
21 25 0 14 0 28 1 33 1 14 -26 11 -48 -6z"/>
<path d="M6392 2323 c-2 -19 -8 -23 -37 -23 -51 0 -83 -19 -95 -55 -13 -40
-37 -62 -70 -67 -19 -2 -26 -10 -28 -32 -2 -16 1 -33 7 -39 29 -29 11 -33 -85
-20 -108 15 -124 10 -124 -38 0 -18 -7 -32 -20 -39 -21 -11 -27 -44 -10 -55
13 -8 13 -41 -1 -80 -10 -25 -9 -39 2 -63 14 -31 60 -54 67 -33 6 19 58 -19
73 -53 8 -17 22 -32 32 -34 26 -5 21 12 -18 58 -19 23 -35 46 -35 51 0 5 22 7
49 5 41 -4 50 -2 54 12 4 16 5 16 6 0 1 -25 21 -23 21 2 0 13 -7 20 -19 20
-11 0 -27 7 -36 16 -11 12 -19 14 -27 6 -16 -16 -36 -3 -31 19 4 15 0 19 -23
19 -21 0 -32 7 -41 25 -10 22 -9 25 7 25 11 0 22 5 26 11 4 7 25 9 55 7 45 -5
49 -3 49 16 1 63 118 111 133 55 3 -11 14 -19 26 -19 24 0 28 15 6 24 -22 8
-18 40 9 65 29 27 60 22 72 -12 6 -16 9 -3 11 46 4 64 -1 226 -5 180z"/>
<path d="M5363 2073 c9 -2 25 -2 35 0 9 3 1 5 -18 5 -19 0 -27 -2 -17 -5z"/>
<path d="M5217 1964 c-7 -7 14 -44 24 -44 9 0 -1 39 -11 45 -4 2 -10 2 -13 -1z"/>
<path d="M6383 1852 c-10 -6 -10 -12 2 -28 14 -18 14 -18 15 9 0 30 0 30 -17
19z"/>
<path d="M5386 1818 c-3 -13 -1 -27 4 -32 7 -7 10 1 10 22 0 37 -5 41 -14 10z"/>
<path d="M6320 1780 c0 -5 7 -10 16 -10 8 0 12 5 9 10 -3 6 -10 10 -16 10 -5
0 -9 -4 -9 -10z"/>
<path d="M6360 1750 c0 -11 9 -29 20 -40 l20 -20 0 40 c0 33 -3 40 -20 40 -13
0 -20 -7 -20 -20z"/>
<path d="M6215 1710 c-8 -24 1 -40 21 -40 20 0 29 27 14 45 -17 20 -27 19 -35
-5z"/>
<path d="M6346 1701 c-4 -7 -5 -15 -2 -18 9 -9 19 4 14 18 -4 11 -6 11 -12 0z"/>
<path d="M5025 1660 c-3 -5 -1 -18 4 -27 6 -10 11 -13 11 -6 0 6 3 18 6 27 7
17 -11 22 -21 6z"/>
<path d="M6365 1650 c-14 -15 -16 -23 -7 -32 15 -15 42 7 42 33 0 25 -12 24
-35 -1z"/>
<path d="M6210 1651 c0 -5 6 -14 14 -20 11 -9 16 -9 21 0 4 6 1 15 -6 20 -18
11 -29 11 -29 0z"/>
<path d="M5044 1615 c-14 -28 -9 -35 23 -35 19 0 23 5 23 30 0 38 -30 41 -46
5z"/>
<path d="M5540 1544 c0 -3 6 -12 14 -20 16 -15 32 -2 21 16 -7 11 -35 14 -35
4z"/>
<path d="M6355 1520 c-8 -14 3 -30 21 -30 16 0 16 2 8 24 -7 18 -20 21 -29 6z"/>
<path d="M4670 1484 c0 -8 5 -12 10 -9 6 3 10 10 10 16 0 5 -4 9 -10 9 -5 0
-10 -7 -10 -16z"/>
<path d="M4070 1465 c-11 -20 -11 -27 0 -40 17 -21 37 -19 50 5 7 12 7 20 1
20 -5 0 -13 9 -16 20 -8 27 -19 25 -35 -5z"/>
<path d="M5717 1425 c-5 -11 0 -15 19 -15 16 0 24 5 22 13 -7 18 -35 20 -41 2z"/>
<path d="M5902 1423 c2 -10 10 -18 18 -18 22 0 18 29 -3 33 -14 3 -18 -1 -15
-15z"/>
<path d="M6002 1410 c0 -19 2 -27 5 -17 2 9 2 25 0 35 -3 9 -5 1 -5 -18z"/>
<path d="M6115 1430 c-3 -5 1 -10 9 -10 9 0 16 5 16 10 0 6 -4 10 -9 10 -6 0
-13 -4 -16 -10z"/>
<path d="M328 1403 c6 -2 18 -2 25 0 6 3 1 5 -13 5 -14 0 -19 -2 -12 -5z"/>
<path d="M6197 1394 c-9 -10 2 -24 19 -24 8 0 14 7 14 15 0 15 -21 21 -33 9z"/>
<path d="M4135 1360 c3 -5 13 -10 21 -10 8 0 12 5 9 10 -3 6 -13 10 -21 10 -8
0 -12 -4 -9 -10z"/>
<path d="M4221 1352 c-15 -5 -14 -32 2 -32 6 0 23 9 37 20 l25 20 -26 -2 c-15
-1 -32 -4 -38 -6z"/>
<path d="M6243 1334 c-7 -18 12 -34 40 -34 23 0 22 12 -3 33 -25 21 -29 21
-37 1z"/>
<path d="M4203 1287 c5 -15 37 -22 37 -9 0 5 -9 12 -21 15 -13 3 -19 1 -16 -6z"/>
<path d="M4430 1287 c0 -21 22 -37 50 -37 l25 1 -30 24 c-34 28 -45 31 -45 12z"/>
<path d="M4990 1255 c0 -10 10 -15 30 -15 35 0 40 15 8 24 -34 9 -38 8 -38 -9z"/>
<path d="M6220 1260 c0 -5 5 -10 10 -10 6 0 10 5 10 10 0 6 -4 10 -10 10 -5 0
-10 -4 -10 -10z"/>
<path d="M6260 1249 c0 -18 61 -69 82 -69 17 0 14 7 -20 40 -39 40 -62 50 -62
29z"/>
<path d="M5088 1233 c7 -3 16 -2 19 1 4 3 -2 6 -13 5 -11 0 -14 -3 -6 -6z"/>
<path d="M4670 1210 c0 -5 5 -10 11 -10 5 0 7 5 4 10 -3 6 -8 10 -11 10 -2 0
-4 -4 -4 -10z"/>
<path d="M4276 1201 c15 -15 47 -17 51 -3 3 8 -6 12 -28 12 -20 0 -29 -4 -23
-9z"/>
<path d="M5456 1187 c-28 -20 -14 -47 24 -47 24 0 46 -13 91 -52 32 -29 59
-60 60 -68 1 -8 4 1 8 20 6 36 41 57 41 25 0 -9 4 -13 10 -10 19 11 -13 46
-37 40 -39 -9 -69 13 -79 58 -9 41 -10 42 -54 45 -27 2 -53 -3 -64 -11z"/>
<path d="M4315 1160 c-2 -4 4 -15 14 -24 13 -12 21 -14 26 -6 3 5 11 8 16 4 5
-3 6 -11 2 -17 -4 -7 0 -6 10 2 9 7 17 17 17 21 0 15 -77 33 -85 20z"/>
<path d="M5894 1157 c-12 -7 -19 -17 -17 -23 2 -6 -5 -14 -17 -17 -26 -7 -27
-37 -1 -37 11 0 21 5 23 11 3 9 10 9 27 -1 29 -15 43 2 34 40 -10 45 -15 47
-49 27z"/>
<path d="M4670 1150 c0 -5 5 -10 10 -10 6 0 10 5 10 10 0 6 -4 10 -10 10 -5 0
-10 -4 -10 -10z"/>
<path d="M5980 1116 c-14 -38 -9 -71 10 -71 18 0 26 56 11 82 -8 16 -11 15
-21 -11z"/>
<path d="M4340 1094 c0 -3 7 -13 16 -21 13 -14 17 -14 24 -3 5 8 6 18 4 22 -6
9 -44 11 -44 2z"/>
<path d="M4400 1082 c0 -11 6 -22 13 -25 16 -5 47 3 47 13 0 4 -8 10 -17 14
-10 3 -24 9 -30 12 -8 3 -13 -2 -13 -14z"/>
<path d="M5063 1083 c-13 -8 -23 -25 -23 -36 0 -16 3 -18 12 -9 7 7 20 12 29
12 22 0 31 13 23 34 -7 19 -13 19 -41 -1z"/>
<path d="M4267 1072 c-16 -3 -16 -6 6 -27 15 -16 30 -22 44 -19 21 6 39 32 28
42 -2 3 -7 -3 -11 -12 -6 -16 -8 -16 -28 2 -11 10 -29 17 -39 14z"/>
<path d="M4658 1049 c-21 -14 4 -27 40 -22 17 3 32 9 32 13 0 11 -57 18 -72 9z"/>
<path d="M5540 1052 c0 -5 9 -17 20 -27 23 -21 28 -2 6 21 -16 16 -26 18 -26
6z"/>
<path d="M4130 975 c0 -8 7 -15 15 -15 8 0 15 7 15 15 0 8 -7 15 -15 15 -8 0
-15 -7 -15 -15z"/>
<path d="M200 966 c0 -17 14 -29 23 -20 8 8 -3 34 -14 34 -5 0 -9 -6 -9 -14z"/>
<path d="M4010 969 c0 -5 -6 -7 -12 -3 -10 5 -10 4 -1 -6 6 -7 16 -9 22 -6 14
9 14 26 1 26 -5 0 -10 -5 -10 -11z"/>
<path d="M5015 970 c-4 -6 5 -10 19 -10 14 0 26 -4 26 -10 0 -5 10 -10 22 -10
19 0 20 2 8 14 -20 18 -67 29 -75 16z"/>
<path d="M4310 951 c-7 -13 -7 -22 0 -26 13 -8 30 3 30 20 0 23 -18 27 -30 6z"/>
<path d="M5191 954 c0 -11 3 -14 6 -6 3 7 2 16 -1 19 -3 4 -6 -2 -5 -13z"/>
<path d="M5220 935 c-22 -27 -4 -48 34 -41 20 4 37 2 41 -4 3 -5 17 -10 31
-10 15 0 23 4 19 11 -4 6 -13 8 -21 5 -8 -3 -14 -1 -14 4 0 15 -42 50 -61 50
-9 0 -22 -7 -29 -15z"/>
<path d="M4011 909 c-22 -29 -23 -59 -2 -59 6 0 20 19 31 42 24 49 24 48 7 48
-7 0 -23 -14 -36 -31z"/>
<path d="M4656 899 c-20 -29 -20 -39 -1 -39 19 0 40 39 27 52 -6 6 -15 2 -26
-13z"/>
<path d="M5907 901 c-3 -11 1 -22 8 -25 17 -6 25 3 25 26 0 24 -26 23 -33 -1z"/>
<path d="M6015 910 c3 -5 13 -10 21 -10 8 0 14 5 14 10 0 6 -9 10 -21 10 -11
0 -17 -4 -14 -10z"/>
<path d="M4410 900 c0 -5 7 -7 15 -4 8 4 15 8 15 10 0 2 -7 4 -15 4 -8 0 -15
-4 -15 -10z"/>
<path d="M4483 903 c-16 -6 -17 -33 -3 -33 6 0 20 9 32 20 21 19 21 20 2 19
-10 0 -25 -3 -31 -6z"/>
<path d="M4580 902 c0 -4 4 -12 9 -17 5 -6 11 -21 13 -35 2 -14 10 -25 18 -25
20 0 15 56 -7 73 -19 14 -33 16 -33 4z"/>
<path d="M22 891 c-7 -4 -16 -33 -19 -64 -5 -53 -4 -57 16 -57 11 0 30 9 42
21 19 19 19 22 5 38 -9 10 -16 30 -16 44 0 28 -6 32 -28 18z"/>
<path d="M5017 885 c-21 -15 -16 -20 31 -30 34 -7 46 10 15 22 -10 4 -20 10
-23 14 -3 4 -13 1 -23 -6z"/>
<path d="M6087 893 c-11 -10 -8 -43 3 -43 12 0 31 35 23 44 -8 8 -18 8 -26 -1z"/>
<path d="M4960 870 c-9 -16 -7 -26 9 -47 12 -14 21 -31 21 -38 0 -7 7 -16 16
-19 14 -5 14 -8 0 -28 -19 -27 -21 -48 -3 -48 6 0 24 -13 39 -29 21 -22 24
-31 15 -40 -9 -10 -8 -15 5 -25 15 -11 15 -13 -3 -24 -22 -14 -25 -35 -6 -51
22 -17 55 63 38 91 -7 11 -10 32 -6 49 7 29 1 34 -33 30 -25 -4 -26 31 -1 51
24 19 24 19 4 31 -29 18 -85 79 -85 93 0 7 6 15 13 17 9 4 9 6 0 6 -7 1 -17
-8 -23 -19z"/>
<path d="M5706 859 c-10 -17 -16 -39 -13 -49 3 -13 -1 -21 -15 -26 -25 -8 -13
-20 30 -29 34 -7 44 9 21 32 -18 18 -2 43 26 43 30 0 32 9 5 38 -27 29 -32 28
-54 -9z"/>
<path d="M6190 860 c0 -5 5 -10 10 -10 6 0 10 5 10 10 0 6 -4 10 -10 10 -5 0
-10 -4 -10 -10z"/>
<path d="M4290 845 c-7 -8 -10 -18 -7 -21 9 -10 48 7 44 19 -6 18 -23 19 -37
2z"/>
<path d="M4870 841 c0 -12 5 -21 10 -21 6 0 10 6 10 14 0 8 -4 18 -10 21 -5 3
-10 -3 -10 -14z"/>
<path d="M230 840 c-8 -5 -11 -12 -8 -16 11 -10 60 5 53 16 -8 12 -26 12 -45
0z"/>
<path d="M4210 840 c0 -5 7 -10 15 -10 8 0 15 5 15 10 0 6 -7 10 -15 10 -8 0
-15 -4 -15 -10z"/>
<path d="M4485 831 c-8 -15 3 -31 21 -31 9 0 14 7 12 17 -4 20 -24 28 -33 14z"/>
<path d="M3864 805 c8 -8 16 -15 19 -15 2 0 4 7 4 15 0 8 -9 15 -19 15 -17 0
-18 -2 -4 -15z"/>
<path d="M3920 803 c0 -8 15 -13 40 -13 33 0 40 -3 40 -20 0 -11 4 -20 10 -20
13 0 31 36 25 52 -7 18 -115 18 -115 1z"/>
<path d="M5230 805 c0 -8 7 -15 15 -15 8 0 15 7 15 15 0 8 -7 15 -15 15 -8 0
-15 -7 -15 -15z"/>
<path d="M5771 806 c-9 -10 -9 -16 -1 -21 17 -10 37 12 24 25 -8 8 -15 6 -23
-4z"/>
<path d="M6017 814 c-14 -14 -6 -24 19 -24 16 0 24 5 22 13 -5 14 -31 21 -41
11z"/>
<path d="M6260 800 c0 -5 5 -10 10 -10 6 0 10 5 10 10 0 6 -4 10 -10 10 -5 0
-10 -4 -10 -10z"/>
<path d="M5300 786 c0 -8 9 -18 20 -21 11 -3 27 -13 35 -22 9 -8 19 -12 23 -8
4 4 -3 15 -15 25 -13 10 -23 23 -23 29 0 6 -9 11 -20 11 -11 0 -20 -6 -20 -14z"/>
<path d="M6095 791 c-3 -5 -1 -12 5 -16 5 -3 10 -15 10 -25 0 -28 14 -32 54
-15 28 12 36 21 36 40 0 27 -10 31 -42 14 -14 -8 -23 -8 -31 0 -13 13 -24 14
-32 2z"/>
<path d="M4430 765 c0 -17 11 -23 50 -27 41 -5 38 13 -5 28 -22 7 -41 14 -42
14 -2 0 -3 -7 -3 -15z"/>
<path d="M4760 750 c0 -5 5 -10 10 -10 6 0 10 5 10 10 0 6 -4 10 -10 10 -5 0
-10 -4 -10 -10z"/>
<path d="M4794 739 c-3 -6 -1 -16 5 -22 8 -8 11 -8 11 0 0 6 12 16 28 21 l27
10 -32 1 c-17 1 -35 -4 -39 -10z"/>
<path d="M4198 721 c-16 -19 -15 -20 32 -26 27 -4 54 -4 60 0 6 4 17 2 25 -5
10 -9 15 -6 20 10 9 29 5 31 -62 36 -49 3 -61 1 -75 -15z"/>
<path d="M4620 730 c0 -6 7 -10 15 -10 8 0 15 2 15 4 0 2 -7 6 -15 10 -8 3
-15 1 -15 -4z"/>
<path d="M6047 733 c-16 -16 -5 -33 21 -33 37 0 46 10 24 26 -19 15 -35 17
-45 7z"/>
<path d="M5443 723 c-7 -3 -13 -11 -13 -18 0 -16 30 -29 42 -17 11 11 -14 41
-29 35z"/>
<path d="M6226 689 c-11 -21 -17 -41 -15 -43 12 -10 59 -15 59 -6 0 5 13 10
29 10 40 0 44 11 15 39 -24 23 -25 23 -39 5 -14 -18 -14 -18 -15 3 0 37 -14
33 -34 -8z"/>
<path d="M5192 689 c-11 -18 -11 -23 5 -34 20 -15 12 -30 -22 -38 -11 -3 4 -3
33 0 l52 6 0 -30 c0 -16 -11 -44 -25 -63 -27 -36 -29 -47 -16 -68 6 -11 12
-11 27 -2 14 8 27 9 47 1 30 -12 35 -28 11 -38 -10 -3 -14 -13 -11 -25 4 -13
-2 -22 -17 -29 -31 -14 -51 -48 -37 -62 6 -6 11 -23 11 -38 0 -21 7 -29 31
-38 52 -18 67 0 73 88 8 116 7 125 -9 137 -19 14 -19 24 -1 24 8 0 16 -6 19
-12 3 -10 7 -10 20 0 20 17 37 8 30 -17 -6 -25 26 -81 47 -81 13 1 12 3 -2 14
-11 8 -14 16 -8 22 5 5 10 26 12 46 2 39 22 58 32 32 3 -9 3 -26 0 -39 -3 -12
-1 -26 6 -30 8 -5 8 -10 0 -20 -18 -22 11 -37 50 -24 25 9 34 9 40 -1 10 -17
30 -4 30 21 0 10 7 19 15 19 8 0 15 -9 15 -20 0 -11 5 -20 10 -20 6 0 10 -15
10 -34 0 -19 7 -41 15 -50 17 -16 10 -46 -10 -46 -7 0 -26 7 -41 15 -37 19
-74 19 -74 1 0 -8 5 -18 11 -22 8 -4 4 -13 -12 -26 -24 -18 -24 -19 -5 -33 17
-13 17 -15 4 -15 -21 0 -35 -40 -18 -50 15 -10 91 -1 107 12 15 12 83 -9 83
-25 0 -20 -67 -56 -102 -56 -121 1 -127 2 -118 20 17 30 -19 41 -46 14 -19
-18 -68 -20 -81 -2 -6 6 -13 25 -17 41 -5 22 -10 26 -19 17 -14 -14 -47 -15
-47 -1 0 12 -40 13 -59 1 -17 -11 -8 -39 16 -48 10 -3 29 -15 42 -27 17 -15
25 -17 28 -8 3 6 13 12 24 12 16 0 19 -6 17 -27 -2 -19 2 -28 15 -31 10 -2 17
3 17 12 0 9 6 16 14 16 19 0 30 -17 14 -22 -7 -3 138 -4 322 -4 l335 1 3 26
c3 22 10 28 38 33 28 6 34 11 34 31 0 15 -6 25 -14 25 -17 0 -66 63 -66 84 0
27 -18 27 -39 0 -21 -26 -23 -27 -62 -14 -26 9 -38 18 -35 27 3 7 -1 13 -9 13
-8 0 -15 -4 -15 -8 0 -12 -46 -32 -73 -32 -16 0 -30 13 -50 45 -15 25 -27 50
-27 54 0 5 -8 7 -18 4 -12 -3 -22 4 -30 21 -6 14 -20 26 -29 26 -14 1 -11 6
12 25 17 14 35 25 41 25 6 0 9 13 6 32 -4 27 -2 30 13 24 26 -10 65 19 58 44
-8 30 -30 25 -64 -15 -19 -21 -39 -34 -53 -34 l-21 2 21 4 c24 4 36 33 24 53
-12 19 -38 5 -42 -22 -5 -34 -41 -31 -83 7 -19 18 -35 42 -35 54 0 11 -4 21
-10 21 -5 0 -10 -4 -10 -10 0 -17 -20 -11 -27 8 -9 25 -44 53 -62 50 -20 -4
-26 -28 -7 -28 9 0 16 -3 16 -8 0 -19 -39 -37 -80 -38 -44 -1 -46 1 -69 45
l-23 46 30 -28 c20 -19 32 -25 37 -17 5 8 11 7 23 -3 22 -18 48 -27 56 -19 4
3 -3 14 -16 24 -18 14 -19 18 -7 18 9 0 19 6 22 14 8 20 -43 84 -71 92 -28 8
-72 -10 -72 -30 0 -23 -29 -27 -50 -6 -11 11 -20 25 -20 30 0 18 -25 11 -38
-11z m176 -47 c2 -7 -3 -12 -12 -12 -9 0 -16 7 -16 16 0 17 22 14 28 -4z m216
-203 c-8 -13 -24 -1 -24 18 0 13 3 13 15 3 8 -7 12 -16 9 -21z m501 -299 c4
-6 4 -18 1 -27 -5 -12 -9 -13 -21 -3 -8 7 -15 19 -15 26 0 16 26 19 35 4z"/>
<path d="M51 689 c-23 -9 -23 -11 -8 -26 13 -13 19 -14 31 -3 16 13 22 41 9
39 -5 0 -19 -5 -32 -10z"/>
<path d="M4696 691 c-6 -9 73 -61 92 -61 6 0 12 -6 15 -12 3 -10 7 -10 17 -1
9 8 7 16 -11 35 -42 42 -99 62 -113 39z"/>
<path d="M4385 680 c3 -5 8 -10 11 -10 2 0 4 5 4 10 0 6 -5 10 -11 10 -5 0 -7
-4 -4 -10z"/>
<path d="M4510 661 c0 -19 18 -21 46 -6 l29 15 -37 0 c-21 0 -38 -4 -38 -9z"/>
<path d="M4200 639 c0 -6 9 -13 21 -16 12 -3 18 -11 15 -19 -7 -19 18 -18 34
1 10 12 9 16 -4 21 -9 3 -13 10 -10 15 3 5 -9 9 -25 9 -17 0 -31 -5 -31 -11z"/>
<path d="M4440 630 c0 -5 5 -10 10 -10 6 0 10 5 10 10 0 6 -4 10 -10 10 -5 0
-10 -4 -10 -10z"/>
<path d="M5622 594 c3 -55 26 -71 44 -31 12 26 6 39 -29 66 -17 14 -18 12 -15
-35z"/>
<path d="M5869 629 c-16 -10 -12 -14 24 -23 20 -5 27 -3 27 8 0 17 -33 27 -51
15z"/>
<path d="M7 623 c-14 -13 -6 -24 15 -21 27 4 36 28 11 28 -11 0 -23 -3 -26 -7z"/>
<path d="M6125 620 c-3 -5 -1 -10 4 -10 6 0 11 5 11 10 0 6 -2 10 -4 10 -3 0
-8 -4 -11 -10z"/>
<path d="M4960 611 c0 -11 29 -35 35 -29 10 9 -7 38 -21 38 -8 0 -14 -4 -14
-9z"/>
<path d="M4364 599 c-10 -16 22 -43 41 -35 9 3 15 11 13 18 -6 16 -46 29 -54
17z"/>
<path d="M5926 601 c-9 -14 23 -70 47 -83 26 -13 67 -55 67 -69 0 -5 8 -9 17
-9 11 0 6 -8 -17 -25 -31 -23 -36 -24 -57 -10 -26 17 -33 18 -53 5 -12 -8 -9
-15 20 -45 18 -19 41 -35 51 -35 21 0 41 -24 39 -47 -5 -40 -1 -45 28 -38 20
4 33 1 42 -10 7 -8 21 -13 30 -10 11 3 20 -1 24 -11 4 -10 13 -14 26 -11 28 7
33 -6 10 -31 -21 -22 -27 -52 -10 -52 6 0 10 -16 10 -35 0 -19 5 -35 10 -35 6
0 10 -11 10 -25 0 -23 4 -25 42 -25 l41 0 -24 26 c-13 14 -23 34 -21 44 2 10
-2 21 -8 25 -16 10 -12 45 5 39 8 -4 17 1 21 10 7 17 34 22 34 6 0 -5 -5 -21
-12 -35 -13 -30 -7 -39 21 -30 29 9 29 65 1 83 -11 7 -20 21 -20 32 0 13 7 20
20 20 14 0 20 7 20 24 0 13 7 29 15 36 8 7 15 22 14 34 0 11 -3 15 -6 9 -10
-25 -28 -12 -28 19 0 38 -29 52 -38 18 -5 -19 -8 -20 -27 -10 -16 9 -19 15
-11 23 19 19 12 27 -29 33 -47 8 -62 23 -30 31 28 7 7 23 -32 23 -22 0 -29 6
-36 33 -6 22 -14 32 -28 32 -22 1 -74 46 -74 65 0 8 -11 11 -32 7 -18 -2 -41
-1 -50 4 -10 5 -19 5 -22 0z m202 -213 c7 -7 12 -18 12 -25 0 -11 -4 -11 -20
-1 -11 7 -20 18 -20 25 0 16 12 17 28 1z m-48 -28 c0 -5 -4 -10 -10 -10 -5 0
-10 5 -10 10 0 6 5 10 10 10 6 0 10 -4 10 -10z m2 -62 c-7 -7 -12 -8 -12 -2 0
14 12 26 19 19 2 -3 -1 -11 -7 -17z m178 -8 c0 -14 -18 -12 -23 3 -4 9 -7 9
-17 0 -11 -10 -11 -15 0 -27 13 -16 7 -46 -9 -46 -5 0 -11 9 -14 19 -3 14 -11
18 -26 14 -12 -3 -21 -1 -21 4 0 12 40 49 60 55 18 6 50 -9 50 -22z m0 -100
c0 -5 -4 -10 -10 -10 -5 0 -10 5 -10 10 0 6 5 10 10 10 6 0 10 -4 10 -10z"/>
<path d="M6254 586 c-6 -25 -6 -25 -27 -5 -26 24 -55 25 -57 2 0 -10 -1 -33
-3 -52 -3 -44 19 -53 30 -12 4 17 11 31 16 31 4 0 14 0 23 0 11 0 14 -5 10
-16 -3 -9 -9 -27 -12 -41 -6 -23 -5 -24 14 -14 28 15 42 14 36 -2 -3 -8 7 -19
23 -26 19 -9 29 -9 31 -2 8 23 32 11 32 -16 1 -23 2 -25 10 -12 6 11 6 27 0
45 -6 16 -9 47 -8 68 3 45 -19 63 -24 19 -4 -40 -38 -45 -38 -5 0 26 -25 62
-43 62 -4 0 -9 -11 -13 -24z"/>
<path d="M4465 591 c-3 -7 2 -11 14 -11 19 0 26 -11 22 -34 -2 -12 51 3 68 19
19 19 15 21 -45 30 -34 4 -54 3 -59 -4z"/>
<path d="M4671 491 c-15 -27 -14 -31 9 -31 13 0 20 7 20 19 0 28 -17 35 -29
12z"/>
<path d="M1 484 c0 -11 3 -14 6 -6 3 7 2 16 -1 19 -3 4 -6 -2 -5 -13z"/>
<path d="M4553 493 c-7 -2 -13 -9 -13 -15 0 -12 41 -6 41 7 1 12 -11 15 -28 8z"/>
<path d="M4051 465 c-19 -21 -21 -28 -11 -40 16 -19 40 -19 40 0 0 17 35 20
46 4 4 -8 9 -7 15 2 10 16 -27 59 -50 59 -9 0 -27 -12 -40 -25z"/>
<path d="M4335 460 c-3 -5 1 -10 10 -10 9 0 13 5 10 10 -3 6 -8 10 -10 10 -2
0 -7 -4 -10 -10z"/>
<path d="M4982 450 c-7 -11 -21 -20 -32 -20 -11 0 -20 -6 -20 -14 0 -8 -6 -16
-12 -19 -7 -2 -10 -8 -5 -12 4 -5 13 -3 19 3 7 7 24 12 38 12 26 0 41 -22 64
-94 5 -15 9 -16 22 -5 20 16 50 34 90 53 27 13 31 19 26 43 -9 50 -35 69 -45
33 -5 -18 -11 -20 -49 -14 -62 8 -68 11 -68 34 0 26 -12 26 -28 0z"/>
<path d="M0 450 c0 -5 7 -10 15 -10 11 0 14 -7 9 -25 -4 -18 -2 -25 9 -25 22
0 27 36 8 54 -20 18 -41 21 -41 6z"/>
<path d="M5200 424 c0 -8 5 -12 10 -9 6 3 10 10 10 16 0 5 -4 9 -10 9 -5 0
-10 -7 -10 -16z"/>
<path d="M4768 403 c7 -3 16 -2 19 1 4 3 -2 6 -13 5 -11 0 -14 -3 -6 -6z"/>
<path d="M5770 391 c0 -17 29 -39 61 -46 37 -8 39 -7 32 28 -5 25 -9 27 -49
27 -24 0 -44 -4 -44 -9z"/>
<path d="M4406 381 c-3 -5 0 -11 8 -14 15 -6 26 1 26 15 0 11 -27 10 -34 -1z"/>
<path d="M4335 371 c-6 -11 9 -23 19 -14 9 9 7 23 -3 23 -6 0 -12 -4 -16 -9z"/>
<path d="M5417 347 c-20 -14 -14 -47 9 -47 19 0 28 25 17 44 -7 14 -12 14 -26
3z"/>
<path d="M4570 341 c0 -17 18 -21 24 -6 3 9 0 15 -9 15 -8 0 -15 -4 -15 -9z"/>
<path d="M5918 325 c-4 -4 -4 -13 -1 -21 4 -11 -6 -14 -41 -14 -25 0 -46 -4
-46 -9 0 -43 42 -54 78 -21 21 20 21 20 35 -1 11 -14 23 -20 43 -17 42 5 38
21 -10 41 -25 10 -46 25 -48 34 -2 8 -6 12 -10 8z"/>
<path d="M4615 310 c4 -6 11 -8 16 -5 14 9 11 15 -7 15 -8 0 -12 -5 -9 -10z"/>
<path d="M5142 273 c3 -25 0 -28 -25 -25 l-29 3 32 -39 c44 -55 71 -68 109
-52 37 15 40 37 6 46 -29 7 -42 39 -25 59 9 11 9 15 1 15 -6 0 -11 -4 -11 -10
0 -5 -5 -10 -11 -10 -6 0 -9 9 -6 20 4 16 0 20 -20 20 -21 0 -24 -4 -21 -27z"/>
<path d="M6378 269 c-20 -11 -24 -34 -7 -45 15 -9 31 10 27 34 -2 17 -7 19
-20 11z"/>
<path d="M5482 243 c4 -22 43 -25 43 -3 0 8 -11 16 -23 18 -19 3 -23 0 -20
-15z"/>
<path d="M5445 200 c3 -5 10 -10 16 -10 5 0 9 5 9 10 0 6 -7 10 -16 10 -8 0
-12 -4 -9 -10z"/>
<path d="M6340 201 c0 -5 5 -13 10 -16 6 -3 10 -2 10 4 0 5 -4 13 -10 16 -5 3
-10 2 -10 -4z"/>
<path d="M5367 194 c-14 -15 -6 -34 14 -34 14 0 19 5 17 17 -3 18 -20 27 -31
17z"/>
<path d="M6125 170 c-3 -5 3 -10 14 -10 12 0 21 5 21 10 0 6 -6 10 -14 10 -8
0 -18 -4 -21 -10z"/>
<path d="M5455 150 c4 -6 11 -8 16 -5 14 9 11 15 -7 15 -8 0 -12 -5 -9 -10z"/>
<path d="M6370 146 c0 -9 7 -16 16 -16 17 0 14 22 -4 28 -7 2 -12 -3 -12 -12z"/>
<path d="M3712 115 c-7 -14 -12 -35 -12 -45 0 -25 33 -43 49 -27 9 9 16 9 31
-1 11 -6 31 -12 45 -12 26 0 34 -15 13 -23 -7 -3 -3 -6 10 -6 27 -1 27 6 3 43
-19 28 -19 31 -3 42 16 12 16 13 -2 20 -13 5 -22 2 -28 -10 -9 -17 -11 -16
-29 0 -19 17 -20 17 -26 -4 -7 -29 -23 -28 -23 1 0 39 -15 51 -28 22z"/>
<path d="M6390 77 c0 -15 -6 -27 -12 -27 -7 0 -21 -12 -31 -25 l-18 -25 29 0
c28 0 30 3 37 46 3 25 4 48 1 52 -3 3 -6 -7 -6 -21z"/>
<path d="M4710 51 c0 -5 -3 -16 -6 -25 -5 -12 1 -15 30 -14 42 1 61 18 22 18
-16 0 -26 6 -26 15 0 8 -4 15 -10 15 -5 0 -10 -4 -10 -9z"/>
<path d="M3922 18 c7 -19 38 -22 38 -4 0 10 -9 16 -21 16 -12 0 -19 -5 -17
-12z"/>
</g>
</svg>
